<svg width="249" height="33" viewBox="0 0 249 33" fill="none" xmlns="http://www.w3.org/2000/svg">
<path d="M17.3545 0L0.0888672 11.1563L7.79199 16.1146L17.3545 9.91667L26.917 16.1146L34.6201 11.1563L17.3545 0Z" fill="#F46513"/>
<path d="M7.79199 16.1145L0.0888672 21.0728L17.3545 32.2291L34.6201 21.0728L26.917 16.1145L17.3545 22.3124L7.79199 16.1145Z" fill="#4C4DFF"/>
<path d="M47.2812 6.46362V23.5522H51.7969V18.1511H54.0104C58.2604 18.1511 61.4479 16.823 61.4479 12.3074C61.4479 7.79175 58.2604 6.46362 54.0104 6.46362H47.2812V6.46362ZM56.8437 12.3074C56.8437 13.8126 55.6042 14.2553 54.276 14.2553H51.7969V10.3595H54.276C55.6042 10.3595 56.8437 10.8022 56.8437 12.3074Z" fill="#102440"/>
<path d="M62.0679 17.7083C62.0679 21.6927 65.1668 23.9062 69.0627 23.9062C70.922 23.9062 72.3387 23.6406 73.4012 23.2864V20.1875C72.4272 20.5416 71.3647 20.7187 70.0366 20.7187C68.3543 20.7187 66.7606 20.1875 66.3179 18.9479H74.021C74.8179 15.4062 73.3127 11.5104 68.2658 11.5104C65.6981 11.4218 62.0679 13.1041 62.0679 17.7083ZM70.2137 16.3802H66.3179C66.3179 15.1406 67.2918 14.4323 68.4429 14.4323C70.0366 14.4323 70.3023 15.8489 70.2137 16.3802Z" fill="#102440"/>
<path d="M79.6873 13.3698V11.776H76.0571V23.4635H80.2186V16.8229C80.9269 15.6719 82.6978 15.2292 84.2915 15.5833V11.5989C81.9894 11.3333 80.4842 12.2187 79.6873 13.3698Z" fill="#102440"/>
<path d="M91.375 23.5521V15.2292H94.474V11.776H91.375V10.9792C91.375 9.91667 92.2604 9.47396 93.1458 9.47396C93.8542 9.47396 94.474 9.65104 94.9167 9.91667V6.55208C94.1198 6.28646 93.1458 6.10938 92.0833 6.10938C89.7812 6.10938 87.2135 7.17187 87.2135 10.8021V11.776H85.2656V15.2292H87.2135V23.5521H91.375Z" fill="#102440"/>
<path d="M95.271 17.7083C95.271 21.6927 98.37 23.9062 102.266 23.9062C104.125 23.9062 105.542 23.6406 106.604 23.2864V20.1875C105.63 20.5416 104.568 20.7187 103.24 20.7187C101.557 20.7187 99.9637 20.1875 99.521 18.9479H107.224C108.021 15.4062 106.516 11.5104 101.469 11.5104C98.8127 11.4218 95.271 13.1041 95.271 17.7083ZM103.328 16.3802H99.4325C99.4325 15.1406 100.406 14.4323 101.557 14.4323C103.151 14.4323 103.505 15.8489 103.328 16.3802Z" fill="#102440"/>
<path d="M108.641 17.8854C108.641 22.0469 111.828 23.9062 115.104 23.9062C116.609 23.9062 117.938 23.6406 119.089 23.1094V19.5677C118.292 20.0104 117.141 20.3646 115.901 20.3646C114.307 20.3646 112.891 19.5677 112.891 17.7083C112.891 15.6719 114.396 14.9635 115.99 14.9635C117.052 14.9635 118.203 15.3177 119 15.7604V12.2188C117.937 11.6875 116.698 11.4219 115.37 11.4219C112.094 11.4219 108.641 13.2813 108.641 17.8854Z" fill="#102440"/>
<path d="M122.099 8.50008V11.7761H120.239V15.2292H122.099V19.8334C122.099 22.9324 124.224 23.8178 126.526 23.8178C127.765 23.8178 128.739 23.6407 129.713 23.2865V20.099C129.093 20.2761 128.474 20.3647 127.854 20.3647C126.791 20.3647 126.349 19.8334 126.349 18.948V15.1407H129.536V11.6876H126.349V7.52612L122.099 8.50008Z" fill="#102440"/>
<path d="M135.844 13.3699V11.7761H132.125V28.8647H136.286V22.5782C136.995 23.2865 138.146 23.9063 139.74 23.9063C143.635 23.9063 145.406 20.7188 145.406 17.7084C145.406 14.698 143.635 11.5105 139.74 11.5105C137.703 11.422 136.375 12.3959 135.844 13.3699ZM141.156 17.7084C141.156 19.0365 140.359 20.5417 138.677 20.5417C137.526 20.5417 136.641 19.8334 136.286 19.0365V16.3803C136.641 15.5834 137.526 14.8751 138.677 14.8751C140.448 14.8751 141.156 16.2917 141.156 17.7084Z" fill="#102440"/>
<path d="M146.823 17.7084C146.823 21.8699 149.922 23.9063 153.375 23.9063C156.828 23.9063 159.927 21.8699 159.927 17.7084C159.927 13.547 156.828 11.5105 153.375 11.5105C149.922 11.5105 146.823 13.547 146.823 17.7084ZM155.677 17.7084C155.677 19.0365 155.058 20.2761 153.375 20.2761C151.693 20.2761 151.073 19.0365 151.073 17.7084C151.073 16.3803 151.693 15.1407 153.375 15.1407C155.146 15.1407 155.677 16.3803 155.677 17.7084Z" fill="#102440"/>
<path d="M162.672 8.50008V11.7761H160.812V15.2292H162.672V19.8334C162.672 22.9324 164.797 23.8178 167.099 23.8178C168.339 23.8178 169.313 23.6407 170.286 23.2865V20.099C169.667 20.2761 169.047 20.3647 168.427 20.3647C167.365 20.3647 166.922 19.8334 166.922 18.948V15.1407H170.109V11.6876H166.922V7.52612L162.672 8.50008Z" fill="#102440"/>
<path d="M171.438 17.7084C171.438 21.8698 174.536 23.9063 177.99 23.9063C181.531 23.9063 184.542 21.8698 184.542 17.7084C184.542 13.5469 181.443 11.5105 177.99 11.5105C174.536 11.4219 171.438 13.5469 171.438 17.7084ZM180.38 17.7084C180.38 19.0365 179.76 20.2761 178.078 20.2761C176.396 20.2761 175.776 19.0365 175.776 17.7084C175.776 16.3803 176.396 15.1407 178.078 15.1407C179.76 15.1407 180.38 16.3803 180.38 17.7084Z" fill="#102440"/>
<path d="M186.578 5.6665V23.4634H190.74V5.6665H186.578Z" fill="#102440"/>
<path d="M205.792 23.5522L201.719 17.6199L205.526 11.8647H200.922L198.354 15.9376H197.469V6.46362H193.219V23.5522H197.38V19.1251H198.266L201.188 23.5522H205.792Z" fill="#102440"/>
<path d="M211.104 23.5521V11.776H206.943V23.4635H211.104V23.5521ZM211.37 7.88021C211.37 6.28646 210.308 5.57812 208.979 5.57812C207.74 5.57812 206.589 6.28646 206.589 7.88021C206.589 9.47396 207.74 10.1823 208.979 10.1823C210.308 10.1823 211.37 9.47396 211.37 7.88021Z" fill="#102440"/>
<path d="M218.188 21.5156C218.188 19.8333 217.037 19.125 215.709 19.125C214.381 19.125 213.229 19.8333 213.229 21.5156C213.229 23.1979 214.381 23.9062 215.709 23.9062C217.037 23.9062 218.188 23.1979 218.188 21.5156Z" fill="#F46513"/>
<path d="M220.312 6.46362V23.5522H223.943V21.9584C224.563 22.9324 225.802 23.9063 227.927 23.9063C231.823 23.9063 233.594 20.7188 233.594 17.7084C233.594 14.698 231.823 11.5105 227.927 11.5105C226.333 11.5105 225.182 12.1303 224.474 12.8386V6.46362H220.312ZM229.344 17.7084C229.344 19.0365 228.547 20.5417 226.865 20.5417C225.714 20.5417 224.828 19.8334 224.474 19.0365V16.3803C224.828 15.5834 225.714 14.8751 226.865 14.8751C228.547 14.8751 229.344 16.2917 229.344 17.7084Z" fill="#102440"/>
<path d="M240.943 18.7709L238.11 11.7761H233.683L239.172 23.8178C238.641 25.0574 237.756 25.6772 236.693 25.6772C236.162 25.6772 235.631 25.5886 235.099 25.5001V28.9532C235.808 29.1303 236.516 29.3074 237.224 29.3074C239.261 29.3074 241.209 28.3334 242.625 24.8803L247.495 11.9532H243.245L240.943 18.7709Z" fill="#102440"/>
</svg>
