<svg width="24" height="24" viewBox="0 0 24 24" fill="none" xmlns="http://www.w3.org/2000/svg">
<circle cx="12" cy="12" r="12" fill="#F46513"/>
<path d="M17.3333 14.6239V16.2239C17.3339 16.3724 17.3035 16.5194 17.244 16.6555C17.1845 16.7916 17.0972 16.9138 16.9878 17.0142C16.8783 17.1146 16.7491 17.1911 16.6084 17.2387C16.4677 17.2863 16.3186 17.3039 16.1706 17.2906C14.5295 17.1122 12.953 16.5514 11.568 15.6532C10.2794 14.8344 9.18683 13.7418 8.36798 12.4532C7.46664 11.0619 6.90571 9.47775 6.73065 7.82922C6.71732 7.68174 6.73485 7.53309 6.78211 7.39276C6.82938 7.25242 6.90535 7.12346 7.00519 7.01409C7.10503 6.90472 7.22654 6.81733 7.362 6.7575C7.49746 6.69767 7.6439 6.6667 7.79198 6.66656H9.39198C9.65081 6.66401 9.90174 6.75566 10.098 6.92444C10.2942 7.09322 10.4224 7.32759 10.4586 7.58389C10.5262 8.09592 10.6514 8.59868 10.832 9.08256C10.9037 9.27345 10.9193 9.48091 10.8767 9.68036C10.8342 9.87981 10.7354 10.0629 10.592 10.2079L9.91465 10.8852C10.6739 12.2204 11.7794 13.326 13.1146 14.0852L13.792 13.4079C13.937 13.2645 14.1201 13.1657 14.3195 13.1231C14.519 13.0806 14.7264 13.0961 14.9173 13.1679C15.4012 13.3484 15.9039 13.4737 16.416 13.5412C16.6751 13.5778 16.9117 13.7083 17.0808 13.9079C17.2499 14.1075 17.3398 14.3623 17.3333 14.6239Z" fill="white"/>
</svg>
