<svg width="20" height="20" viewBox="0 0 20 20" fill="none" xmlns="http://www.w3.org/2000/svg">
<circle cx="10" cy="10" r="10" fill="#F46513"/>
<g clip-path="url(#clip0_288_1058)">
<path d="M14 9.11133C14 12.2224 10 14.8891 10 14.8891C10 14.8891 6 12.2224 6 9.11133C6 8.05046 6.42143 7.03305 7.17157 6.2829C7.92172 5.53276 8.93913 5.11133 10 5.11133C11.0609 5.11133 12.0783 5.53276 12.8284 6.2829C13.5786 7.03305 14 8.05046 14 9.11133Z" fill="white" stroke="white" stroke-width="0.666667" stroke-linecap="round" stroke-linejoin="round"/>
<path d="M9.99996 10.6667C10.7363 10.6667 11.3333 10.0697 11.3333 9.33333C11.3333 8.59695 10.7363 8 9.99996 8C9.26358 8 8.66663 8.59695 8.66663 9.33333C8.66663 10.0697 9.26358 10.6667 9.99996 10.6667Z" fill="#F46513"/>
</g>
<defs>
<clipPath id="clip0_288_1058">
<rect width="10.6667" height="10.6667" fill="white" transform="translate(4.66663 4.66675)"/>
</clipPath>
</defs>
</svg>
