<svg width="70" height="70" viewBox="0 0 70 70" fill="none" xmlns="http://www.w3.org/2000/svg">
<g clip-path="url(#clip0_511_145)">
<path d="M29.6979 3.20317C29.4423 2.94887 29.0909 2.80258 28.73 2.80258C28.3704 2.80258 28.0177 2.94887 27.7634 3.20317C27.5091 3.45746 27.3628 3.8102 27.3628 4.16977C27.3628 4.52934 27.5091 4.88207 27.7634 5.13637C28.0177 5.39067 28.3704 5.53696 28.73 5.53696C29.0909 5.53696 29.4423 5.39067 29.6979 5.13637C29.9522 4.88207 30.0972 4.52934 30.0972 4.16977C30.0972 3.8102 29.9522 3.45746 29.6979 3.20317Z" fill="#4C4DFF"/>
<path d="M48.2569 25.5425L47.1242 19.7986C46.6623 17.4558 45.5243 15.3261 43.8332 13.64L41.8965 11.7085V4.16976C41.8965 3.41467 41.2844 2.80258 40.5293 2.80258C39.7742 2.80258 39.1621 3.41467 39.1621 4.16976V12.2759C39.1621 12.6392 39.3068 12.9875 39.5639 13.244L41.9025 15.576C43.2071 16.877 44.0851 18.52 44.4415 20.3274L45.5742 26.0713C45.6184 26.2956 45.5716 26.5229 45.4424 26.7115C45.3132 26.9 45.118 27.0258 44.8929 27.0654C44.4575 27.1431 44.0326 26.8657 43.927 26.4354L43.3417 24.0483C43.1354 23.2072 42.3619 22.6717 41.5021 22.776C40.6424 22.8799 40.0184 23.5839 40.0184 24.4499V35.5707C40.0184 36.0095 39.6613 36.3666 39.2224 36.3666C38.819 36.3666 38.4855 36.0648 38.4341 35.6752V29.8681C38.4341 29.113 37.822 28.501 37.0669 28.501C37.0655 28.501 37.0643 28.5011 37.0631 28.5011C37.0619 28.5011 37.0605 28.501 37.0593 28.501C36.3042 28.501 35.6921 29.113 35.6921 29.8681V35.5707C35.6921 35.6452 35.6952 35.719 35.6997 35.7923V37.6136C35.6997 38.0525 35.3426 38.4096 34.9038 38.4096C34.4649 38.4096 34.1078 38.0525 34.1078 37.6136V35.7915C34.1123 35.7183 34.1154 35.6449 34.1154 35.5707V29.8681C34.1154 29.113 33.5034 28.501 32.7483 28.501C32.747 28.501 32.7457 28.5011 32.7444 28.5011C32.7432 28.5011 32.7418 28.501 32.7406 28.501C31.9855 28.501 31.3734 29.113 31.3734 29.8681V35.6748C31.3222 36.0646 30.9886 36.3668 30.585 36.3668C30.1461 36.3668 29.789 36.0097 29.789 35.5708V33.5312C29.7935 33.4581 29.7967 33.3847 29.7967 33.3104V29.8681C29.7967 29.113 29.1846 28.501 28.4295 28.501C28.4282 28.501 28.4269 28.5011 28.4256 28.5011C28.4244 28.5011 28.423 28.501 28.4218 28.501C27.6667 28.501 27.0546 29.113 27.0546 29.8681V33.4145C27.0034 33.8043 26.6698 34.1064 26.2662 34.1064C25.8273 34.1064 25.4702 33.7493 25.4702 33.3104V28.5211V25.2763V21.2891C25.4702 18.818 26.4338 16.4961 28.1837 14.7513L29.6952 13.2442C29.9524 12.9877 30.097 12.6393 30.097 12.2761V9.04527C30.097 8.29018 29.4849 7.67809 28.7298 7.67809C27.9747 7.67809 27.3627 8.29018 27.3627 9.04527V11.7085L26.2529 12.815C23.9849 15.0766 22.7358 18.086 22.7358 21.2889V25.2762V28.5209V33.3103C22.7358 35.2569 24.3196 36.8406 26.2662 36.8406C26.6046 36.8406 26.9316 36.7918 27.2417 36.7024C27.7146 38.0954 29.034 39.1009 30.5848 39.1009C30.9499 39.1009 31.3021 39.0452 31.6335 38.9419C32.1594 40.2319 33.4267 41.1438 34.9035 41.1438C36.3803 41.1438 37.648 40.2321 38.1739 38.942C38.5053 39.0454 38.8575 39.101 39.2225 39.101C41.1691 39.101 42.7529 37.5173 42.7529 35.5707V29.2019C43.4968 29.7018 44.4259 29.9242 45.3679 29.7584C46.3225 29.5901 47.15 29.0569 47.698 28.2572C48.246 27.4575 48.4443 26.4935 48.2569 25.5425Z" fill="#4C4DFF"/>
<path d="M34.0535 53.2101C33.8861 52.92 33.6814 52.6599 33.4471 52.4333C34.4164 51.3269 34.6271 49.6821 33.8519 48.3394C33.6698 48.0239 33.446 47.7472 33.1914 47.5122C33.4775 47.1446 33.6903 46.7202 33.8144 46.2567C34.0585 45.3458 33.9332 44.3945 33.4617 43.5777C32.7234 42.299 31.3004 41.6575 29.9205 41.8467C29.8429 41.5044 29.7135 41.1719 29.5329 40.8592C29.0615 40.0426 28.3001 39.4584 27.3893 39.2143C26.4784 38.9702 25.5271 39.0954 24.7103 39.5671L19.1948 42.7514C19.2557 41.8572 18.9841 40.9415 18.3692 40.2087C17.746 39.466 16.8706 39.016 15.9041 38.9412C14.9382 38.8672 14.0035 39.1766 13.2735 39.8145L8.86544 43.6675C7.06745 45.2391 5.79213 47.2894 5.17731 49.5969L4.47321 52.2399L0.684322 54.4274C0.0303958 54.8049 -0.193686 55.6411 0.183931 56.295C0.437134 56.7336 0.896646 56.9789 1.36915 56.9787C1.60102 56.9787 1.83618 56.9197 2.05151 56.7954L6.3319 54.3241C6.64649 54.1424 6.8759 53.8431 6.96942 53.4921L7.81967 50.3007C8.29395 48.5205 9.27792 46.9387 10.6651 45.7262L15.0732 41.8732C15.2453 41.7227 15.4651 41.6497 15.6934 41.6673C15.9214 41.685 16.1277 41.7911 16.2746 41.9662C16.5594 42.3054 16.5318 42.8113 16.212 43.1177L14.4374 44.8182C13.8121 45.4173 13.7355 46.3547 14.2553 47.0475C14.7752 47.7403 15.6969 47.9288 16.4468 47.4955L26.0776 41.9352C26.2617 41.8288 26.4762 41.8006 26.6817 41.8556C26.887 41.9106 27.0587 42.0424 27.1651 42.2265C27.2713 42.4107 27.2996 42.6252 27.2447 42.8305C27.1965 43.0103 27.0869 43.1614 26.9373 43.2683L21.9312 46.1586C21.2773 46.536 21.0532 47.3722 21.4308 48.0261C21.4315 48.0272 21.4322 48.0282 21.4329 48.0293C21.4336 48.0304 21.434 48.0316 21.4347 48.0327C21.8122 48.6866 22.6482 48.9106 23.3023 48.5331L28.2409 45.6818C28.3052 45.6448 28.3675 45.6051 28.4289 45.5645L30.0064 44.6538C30.3865 44.4344 30.8743 44.565 31.0939 44.9452C31.3133 45.3253 31.1826 45.8131 30.8025 46.0326L29.2244 46.9437C29.1589 46.9764 29.0937 47.0104 29.0294 47.0475L24.0907 49.8988C23.4368 50.2762 23.2127 51.1124 23.5903 51.7663C23.6416 51.8548 23.7042 51.9381 23.7737 52.0131C24.0359 52.2987 24.4026 52.4568 24.7794 52.4568C25.0112 52.4568 25.2464 52.3977 25.4617 52.2734L30.4904 49.3701C30.8535 49.2195 31.282 49.3572 31.4839 49.7068C31.7033 50.0869 31.5726 50.5747 31.1926 50.7943L29.427 51.8136C29.3611 51.8465 29.2956 51.8808 29.2312 51.9178L26.25 53.639C25.5961 54.0165 25.372 54.8526 25.7497 55.5066C25.993 55.9261 26.4528 56.197 26.9387 56.197C27.1706 56.197 27.4057 56.1379 27.6211 56.0136L30.6927 54.2403C30.8538 54.1733 31.0311 54.1604 31.2024 54.2064C31.4078 54.2615 31.5793 54.3931 31.6857 54.5773C31.9051 54.9574 31.7744 55.4452 31.3944 55.6647L27.0127 58.1945L20.9835 61.6754C18.8434 62.911 16.3508 63.2372 13.9649 62.5943L11.9039 62.0388C11.5529 61.9442 11.1791 61.9933 10.8645 62.175L6.58415 64.6463C5.93022 65.0238 5.70614 65.86 6.08376 66.5139C6.33696 66.9525 6.79647 67.1978 7.26897 67.1976C7.50085 67.1976 7.736 67.1386 7.95133 67.0143L11.7402 64.8268L13.2533 65.2346C16.3457 66.0678 19.5767 65.6449 22.3506 64.0435L25.8034 62.0501C25.8034 62.0501 25.8035 62.0501 25.8035 62.0499L28.3797 60.5626L28.6136 60.4275L32.7614 58.0327C34.4473 57.0594 35.0268 54.896 34.0535 53.2101Z" fill="#4C4DFF"/>
<path d="M69.3168 54.4273L65.5279 52.2398L65.1245 50.7255C64.2999 47.6304 62.3182 45.044 59.5445 43.4425L53.5153 39.9615L49.1336 37.4317C48.3169 36.9602 47.3654 36.835 46.4547 37.079C45.5439 37.3231 44.7825 37.9073 44.3111 38.7239C44.1421 39.0165 44.0212 39.3237 43.9435 39.6362C43.4178 39.5307 42.8709 39.546 42.3379 39.689C41.4271 39.933 40.6657 40.5172 40.1943 41.3338C40.0138 41.6465 39.8845 41.979 39.8068 42.3212C38.4269 42.1321 37.0039 42.7738 36.2657 44.0524C35.5274 45.3311 35.6832 46.8842 36.537 47.9847C36.2795 48.2231 36.0561 48.5013 35.8756 48.814C34.9023 50.4999 35.482 52.6633 37.1677 53.6366L42.6832 56.8211C41.8786 57.2155 41.221 57.9087 40.8938 58.8075C40.5623 59.7184 40.6102 60.7016 41.0287 61.576C41.4473 62.4505 42.183 63.1044 43.1004 63.4175L48.641 65.3086C50.9011 66.0801 53.3145 66.1592 55.6201 65.538L58.2611 64.8262L62.05 67.0137C62.2653 67.138 62.5003 67.1972 62.7323 67.1971C63.2048 67.1971 63.6643 66.9519 63.9175 66.5133C64.2952 65.8594 64.0711 65.0232 63.4172 64.6458L59.1368 62.1744C58.8222 61.9927 58.4482 61.9436 58.0974 62.0384L54.9086 62.8977C53.1299 63.3771 51.2679 63.3159 49.5242 62.7208L43.9834 60.8297C43.7671 60.7558 43.5936 60.6016 43.4949 60.3954C43.3962 60.1893 43.385 59.9574 43.4632 59.7426C43.6145 59.3264 44.0665 59.0977 44.4917 59.2212L46.8516 59.9079C47.6833 60.1502 48.5334 59.7475 48.8734 58.9509C49.2133 58.1543 48.9158 57.262 48.1658 56.829L38.5349 51.2686C38.1548 51.0492 38.0241 50.5614 38.2436 50.1812C38.3499 49.997 38.5215 49.8654 38.7269 49.8103C38.8983 49.7643 39.0755 49.7772 39.2364 49.844L44.2657 52.7477C44.4811 52.8719 44.7161 52.9311 44.9481 52.931C45.3245 52.931 45.6909 52.7732 45.9531 52.4882C46.023 52.413 46.0857 52.3294 46.1373 52.2406C46.5149 51.5867 46.2908 50.7505 45.6369 50.373L40.6983 47.5217C40.6338 47.4845 40.5682 47.4502 40.5022 47.4173L38.9251 46.5069C38.545 46.2874 38.4143 45.7996 38.6338 45.4194C38.7401 45.2352 38.9117 45.1036 39.1172 45.0485C39.3227 44.9935 39.5371 45.0218 39.7211 45.1281L41.2984 46.0387C41.3598 46.0795 41.4223 46.119 41.4865 46.1562L46.4251 49.0075C46.6404 49.1317 46.8754 49.1909 47.1074 49.1908C47.484 49.1908 47.8504 49.0329 48.1126 48.7477C48.1825 48.6726 48.2449 48.5891 48.2966 48.5004C48.6742 47.8464 48.4502 47.0103 47.7962 46.6328L42.79 43.7424C42.6406 43.6355 42.5311 43.4844 42.4828 43.3046C42.4278 43.0993 42.456 42.8848 42.5624 42.7006C42.6687 42.5165 42.8403 42.3847 43.0458 42.3297C43.251 42.2747 43.4657 42.3029 43.6498 42.4093L45.4161 43.4291C45.4771 43.4695 45.5393 43.5089 45.6035 43.5461L48.5847 45.2672C48.8 45.3915 49.035 45.4507 49.267 45.4506C49.6434 45.4506 50.01 45.2927 50.2721 45.0076C50.3419 44.9323 50.4043 44.8489 50.4561 44.7601C50.8337 44.1062 50.6096 43.2701 49.9557 42.8926L46.8845 41.1193C46.5726 40.8801 46.4777 40.4401 46.6794 40.0907C46.7857 39.9065 46.9573 39.7747 47.1627 39.7197C47.3683 39.6649 47.5825 39.6929 47.7667 39.7993L51.9145 42.1941L52.1484 42.3292L54.7246 43.8165C54.7246 43.8165 54.7247 43.8165 54.7247 43.8167L58.1775 45.8101C60.3176 47.0458 61.8464 49.0412 62.4825 51.429L63.0322 53.4916C63.1257 53.8425 63.3551 54.1419 63.6697 54.3235L67.9501 56.7948C68.1654 56.9191 68.4004 56.9782 68.6324 56.9782C69.1049 56.9782 69.5644 56.733 69.8176 56.2944C70.1948 55.641 69.9708 54.8049 69.3168 54.4273Z" fill="#4C4DFF"/>
</g>
<defs>
<clipPath id="clip0_511_145">
<rect width="70" height="70" fill="white"/>
</clipPath>
</defs>
</svg>
