<svg width="70" height="70" viewBox="0 0 70 70" fill="none" xmlns="http://www.w3.org/2000/svg">
<path d="M65.3335 45.2604C61.8282 42.0744 57.1099 40.8577 52.5676 41.9292L43.8722 33.2337L58.9548 18.1512C59.1001 18.0059 59.2044 17.8357 59.2706 17.6547H62.8842C63.3949 17.6547 63.8631 17.3698 64.0981 16.9164L69.799 5.90754C70.073 5.37866 69.9728 4.73344 69.5518 4.31228L65.6947 0.455345C65.2735 0.0341785 64.6279 -0.0657477 64.0994 0.208058L53.0907 5.90905C52.6372 6.14389 52.3524 6.61208 52.3524 7.12292V10.7365C52.1714 10.8027 52.0013 10.907 51.8559 11.0523L36.7732 26.1349L28.0423 17.404C29.1381 12.6372 27.7243 7.62761 24.2557 4.15904C22.0572 1.96053 19.2718 0.570445 16.2006 0.138752C13.2326 -0.278176 10.1483 0.266702 7.51647 1.67332C7.13467 1.87741 6.87221 2.25019 6.80865 2.67833C6.74508 3.10646 6.88821 3.53939 7.19414 3.84559L13.9672 10.6186C14.414 11.0652 14.6599 11.659 14.6599 12.2907C14.6599 12.9223 14.4138 13.5161 13.9672 13.9627C13.0456 14.8846 11.5452 14.8849 10.6231 13.9627L3.85105 7.19059C3.54499 6.88452 3.11261 6.74126 2.68379 6.80496C2.25565 6.86839 1.88288 7.13099 1.67879 7.51279C-1.39282 13.2598 -0.164176 20.3398 4.66632 24.7303C8.1718 27.9163 12.8899 29.1332 17.4323 28.0615L23.0768 33.706C22.3553 33.9411 21.677 34.3434 21.1047 34.9157L2.90592 53.1147C-0.950052 56.9708 -0.950052 63.2451 2.90592 67.1011C4.77376 68.969 7.25743 69.9977 9.89912 69.9977C12.5408 69.9977 15.0243 68.969 16.8923 67.1011L19.9032 64.09C20.437 63.5562 20.437 62.6906 19.9032 62.1568C19.3693 61.623 18.504 61.623 17.9699 62.1568L14.959 65.1677C12.169 67.9579 7.62897 67.9577 4.83897 65.1677C2.04896 62.3776 2.04896 57.8379 4.83897 55.0477L19.4282 40.4585L29.5482 50.5785L26.6694 53.4574C26.1355 53.9912 26.1355 54.8568 26.6694 55.3906C27.2033 55.9244 28.0686 55.9244 28.6027 55.3906L35.091 48.9022C35.6531 48.3401 36.0631 47.6667 36.3033 46.9325L41.9575 52.5867C40.8617 57.3535 42.2756 62.3631 45.7442 65.8317C47.9427 68.0302 50.7281 69.4203 53.7992 69.852C54.4502 69.9434 55.1066 69.9887 55.7628 69.9887C58.0984 69.9887 60.4288 69.4156 62.4834 68.3174C62.8652 68.1133 63.1276 67.7405 63.1912 67.3124C63.2548 66.8843 63.1118 66.4513 62.8057 66.1451L56.0326 59.372C55.5859 58.9254 55.34 58.3316 55.34 57.7001C55.34 57.0684 55.586 56.4746 56.0326 56.028C56.9548 55.1059 58.4552 55.1061 59.3768 56.028L66.1489 62.8001C66.4549 63.1061 66.8868 63.2492 67.3162 63.1858C67.7443 63.1223 68.1171 62.8597 68.3212 62.4779C71.3927 56.731 70.1642 49.6509 65.3335 45.2604ZM64.4687 3.09567L66.9114 5.53832L62.0527 14.9207H57.6577L55.0863 12.3493V7.95432L64.4687 3.09567ZM52.8225 13.9519L56.0549 17.1844L33.2384 40.0012L30.0059 36.7687L52.8225 13.9519ZM17.4529 25.228C13.5947 26.3741 9.50255 25.4316 6.50504 22.7072C3.07898 19.5932 1.89532 14.8052 3.33611 10.5423L8.68975 15.8961C10.6776 17.8839 13.9123 17.8839 15.9004 15.8961C16.8635 14.933 17.3939 13.6527 17.3939 12.2907C17.3939 10.9287 16.8635 9.64842 15.9004 8.68524L10.5439 3.32874C14.6339 1.93469 19.1779 2.94762 22.3225 6.09236C25.2791 9.049 26.3857 13.3954 25.2104 17.4357C25.0709 17.9147 25.2035 18.4314 25.5562 18.7842L34.8401 28.0681L32.423 30.4851L27.3101 25.3724C26.7761 24.8386 25.9108 24.8386 25.3767 25.3724C24.8429 25.9062 24.8429 26.7717 25.3767 27.3056L30.4896 32.4183L28.0726 34.8354L18.8088 25.5717C18.4542 25.2171 17.9337 25.0849 17.4529 25.228ZM33.1579 46.9691L31.4817 48.6453L21.3616 38.5253L23.038 36.849C23.9146 35.9719 25.3419 35.9718 26.2192 36.849L33.1579 43.7878C34.035 44.6648 34.035 46.0921 33.1579 46.9691ZM66.6637 59.4486L61.3101 54.0948C60.3471 53.1318 59.0666 52.6015 57.7048 52.6015C56.3429 52.6015 55.0625 53.1318 54.0994 54.0948C53.1364 55.0578 52.606 56.3381 52.606 57.7002C52.606 59.0621 53.1364 60.3424 54.0994 61.3055L59.4562 66.6623C55.3665 68.0562 50.8222 67.0434 47.6776 63.8986C44.721 60.942 43.6144 56.5956 44.7898 52.5553C44.9292 52.0763 44.7966 51.5596 44.4439 51.2068L35.1717 41.9346L37.5888 39.5175L42.6901 44.6186C42.9571 44.8856 43.3069 45.019 43.6567 45.019C44.0065 45.019 44.3563 44.8855 44.6233 44.6186C45.1571 44.0848 45.1571 43.2192 44.6233 42.6854L39.522 37.5843L41.9389 35.1669L51.191 44.419C51.5459 44.7738 52.0663 44.906 52.547 44.7628C56.4053 43.6168 60.4973 44.5593 63.4948 47.2837C66.9209 50.3977 68.1045 55.1856 66.6637 59.4486Z" fill="#4C4DFF"/>
<path d="M23.2854 57.4065C22.9259 57.4065 22.5732 57.5528 22.3191 57.807C22.0649 58.0613 21.9185 58.414 21.9185 58.7735C21.9185 59.1344 22.0647 59.4857 22.3191 59.7399C22.5732 59.9942 22.9259 60.1405 23.2854 60.1405C23.645 60.1405 23.9976 59.9942 24.2519 59.7399C24.5062 59.4857 24.6524 59.1344 24.6524 58.7735C24.6524 58.414 24.5063 58.0613 24.2519 57.807C23.9976 57.5528 23.645 57.4065 23.2854 57.4065Z" fill="#4C4DFF"/>
</svg>
