<svg width="20" height="20" viewBox="0 0 20 20" fill="none" xmlns="http://www.w3.org/2000/svg">
<circle cx="10" cy="10" r="10" fill="#F46513"/>
<path d="M14.4444 12.1868V13.5202C14.4449 13.6439 14.4195 13.7664 14.3699 13.8799C14.3204 13.9933 14.2476 14.0951 14.1564 14.1788C14.0652 14.2624 13.9575 14.3261 13.8403 14.3658C13.723 14.4055 13.5988 14.4202 13.4755 14.409C12.1079 14.2604 10.7942 13.7931 9.63994 13.0446C8.56609 12.3622 7.65565 11.4518 6.97328 10.3779C6.22216 9.21846 5.75472 7.89837 5.60883 6.5246C5.59773 6.40169 5.61233 6.27782 5.65172 6.16087C5.69111 6.04392 5.75442 5.93646 5.83762 5.84532C5.92081 5.75418 6.02208 5.68136 6.13496 5.63149C6.24784 5.58163 6.36987 5.55582 6.49328 5.55571H7.82661C8.0423 5.55358 8.25141 5.62996 8.41495 5.77061C8.57849 5.91126 8.68531 6.10657 8.7155 6.32015C8.77178 6.74685 8.87614 7.16581 9.02661 7.56904C9.08641 7.72812 9.09935 7.901 9.0639 8.06721C9.02845 8.23342 8.9461 8.38598 8.82661 8.50682L8.26217 9.07126C8.89486 10.1839 9.81615 11.1052 10.9288 11.7379L11.4933 11.1735C11.6141 11.054 11.7667 10.9716 11.9329 10.9362C12.0991 10.9007 12.272 10.9137 12.4311 10.9735C12.8343 11.124 13.2532 11.2283 13.6799 11.2846C13.8958 11.3151 14.093 11.4238 14.234 11.5901C14.3749 11.7565 14.4498 11.9689 14.4444 12.1868Z" fill="white"/>
</svg>
