<svg width="70" height="70" viewBox="0 0 70 70" fill="none" xmlns="http://www.w3.org/2000/svg">
<g clip-path="url(#clip0_511_947)">
<path d="M29.3887 70.0007C27.2903 70.0007 25.2259 69.0236 23.9241 67.2145C23.0368 65.9812 21.5539 65.3672 20.0547 65.6117C19.6942 65.6705 19.3344 65.699 18.9793 65.6991C15.9198 65.6994 13.1602 63.5865 12.4395 60.5235C12.0916 59.0446 10.9569 57.9099 9.47806 57.562C6.05946 56.7578 3.82437 53.4128 4.38981 49.9469C4.63431 48.4475 4.02019 46.9648 2.78703 46.0776C-0.0635362 44.0264 -0.848311 40.0808 1.00033 37.0948C1.80001 35.8031 1.80001 34.1983 1.00033 32.9066C-0.848311 29.9208 -0.0635362 25.9751 2.78703 23.9239C4.02019 23.0366 4.63431 21.5539 4.38981 20.0545C3.82451 16.5885 6.05946 13.2435 9.47806 12.4393C10.9569 12.0914 12.0916 10.9567 12.4395 9.47785C13.2437 6.05924 16.5885 3.82402 20.0547 4.3896C21.5543 4.63423 23.0368 4.01998 23.924 2.78682C25.9751 -0.0638865 29.9209 -0.848388 32.9067 1.00012C34.1982 1.7998 35.8031 1.79994 37.0949 1.00012C40.0806 -0.848524 44.0263 -0.0637498 46.0776 2.78682C46.9648 4.02011 48.4478 4.63368 49.9471 4.3896C53.4126 3.82416 56.758 6.05924 57.5622 9.47785C57.9101 10.9567 59.0448 12.0914 60.5237 12.4393C63.9423 13.2435 66.1774 16.5885 65.6119 20.0545C65.3674 21.5539 65.9816 23.0366 67.2147 23.9238C70.0653 25.9749 70.8501 29.9205 69.0014 32.9065C68.2017 34.1982 68.2017 35.803 69.0014 37.0947C70.8501 40.0805 70.0653 44.0263 67.2147 46.0774C65.9816 46.9647 65.3674 48.4475 65.6119 49.9469C66.1772 53.4128 63.9423 56.7578 60.5237 57.562C59.0448 57.9099 57.9101 59.0446 57.5622 60.5235C56.758 63.9421 53.4131 66.1773 49.9471 65.6117C48.4481 65.3674 46.9651 65.9815 46.0778 67.2145C44.0266 70.0651 40.0808 70.8499 37.095 69.0012C35.8034 68.2014 34.1985 68.2013 32.9068 69.0012C31.8159 69.6769 30.5967 70.0007 29.3887 70.0007ZM20.7128 62.8232C22.8507 62.8232 24.8642 63.8387 26.144 65.6172C27.3595 67.3064 29.6976 67.7716 31.4671 66.676C33.6468 65.3266 36.3548 65.3265 38.5347 66.676C40.304 67.7716 42.6423 67.3065 43.8577 65.6172C45.3551 63.5362 47.8571 62.4994 50.3873 62.9125C52.4406 63.2476 54.4235 61.9232 54.8999 59.8972C55.487 57.4016 57.4018 55.4868 59.8974 54.8997C61.9231 54.4232 63.2476 52.4409 62.9126 50.387C62.4999 47.8567 63.5364 45.3547 65.6173 43.8575C67.3066 42.642 67.7717 40.3038 66.6761 38.5345C65.3266 36.3548 65.3266 33.6467 66.6761 31.4669C67.7717 29.6975 67.3065 27.3592 65.6173 26.1438C63.5364 24.6465 62.5 22.1445 62.9126 19.6143C63.2476 17.5602 61.9231 15.578 59.8973 15.1016C57.4017 14.5145 55.4869 12.5997 54.8998 10.1041C54.4233 8.07827 52.4412 6.75404 50.3871 7.08893C47.8568 7.50162 45.3548 6.4651 43.8576 4.38426C42.6421 2.69493 40.3039 2.22972 38.5345 3.32545C36.3548 4.67498 33.6468 4.67498 31.4669 3.32545C29.6977 2.23 27.3594 2.69493 26.1439 4.38426C24.6465 6.4651 22.1443 7.50148 19.6144 7.08893C17.5607 6.75404 15.5782 8.07827 15.1017 10.1043C14.5146 12.5999 12.5998 14.5147 10.1042 15.1017C8.07848 15.5783 6.75398 17.5605 7.089 19.6144C7.5017 22.1447 6.46518 24.6467 4.38434 26.1439C2.695 27.3595 2.22994 29.6977 3.32553 31.467C4.67506 33.6467 4.67506 36.3548 3.32553 38.5346C2.22994 40.3039 2.69514 42.6423 4.38434 43.8576C6.46518 45.355 7.50156 47.857 7.089 50.3872C6.75398 52.4412 8.07848 54.4235 10.1043 54.8999C12.5999 55.4869 14.5148 57.4017 15.1018 59.8973C15.5784 61.9232 17.561 63.2476 19.6145 62.9125C19.9822 62.8526 20.3494 62.8232 20.7128 62.8232Z" fill="#4C4DFF"/>
<path d="M35.0004 60.9814C20.6743 60.9814 9.01904 49.3262 9.01904 35.0001C9.01904 20.6739 20.6743 9.01868 35.0004 9.01868C39.7221 9.01868 44.3458 10.2983 48.3715 12.7192C49.0187 13.1084 49.228 13.9486 48.8388 14.5958C48.4496 15.2431 47.6091 15.4522 46.9623 15.063C43.3621 12.898 39.2257 11.7537 35.0006 11.7537C22.1824 11.7537 11.7541 22.1821 11.7541 35.0002C11.7541 47.8183 22.1824 58.2467 35.0006 58.2467C47.8187 58.2467 58.2471 47.8183 58.2471 35.0002C58.2471 30.8678 57.1494 26.8102 55.0728 23.266C54.691 22.6145 54.9098 21.7766 55.5613 21.3948C56.213 21.0132 57.0507 21.2318 57.4325 21.8833C59.7545 25.8464 60.9821 30.3821 60.9821 35.0001C60.9818 49.3262 49.3266 60.9814 35.0004 60.9814Z" fill="#4C4DFF"/>
<path d="M29.858 46.9548C29.6575 46.9548 29.454 46.9105 29.2616 46.8171C28.5823 46.4871 28.299 45.669 28.6289 44.9896L38.9115 23.8157C39.2415 23.1364 40.0596 22.8529 40.739 23.183C41.4183 23.513 41.7017 24.3311 41.3717 25.0105L31.0891 46.1844C30.8527 46.6713 30.3653 46.9548 29.858 46.9548Z" fill="#4C4DFF"/>
<path d="M44.609 47.7173C41.5881 47.7173 39.1304 45.2596 39.1304 42.2386C39.1304 39.2177 41.5881 36.7599 44.609 36.7599C47.63 36.7599 50.0877 39.2177 50.0877 42.2386C50.0878 45.2596 47.6301 47.7173 44.609 47.7173ZM44.609 39.4947C43.0961 39.4947 41.8653 40.7255 41.8653 42.2385C41.8653 43.7514 43.0961 44.9822 44.609 44.9822C46.122 44.9822 47.3528 43.7514 47.3528 42.2385C47.3528 40.7255 46.122 39.4947 44.609 39.4947Z" fill="#4C4DFF"/>
<path d="M25.3927 33.2401C22.3718 33.2401 19.9141 30.7824 19.9141 27.7615C19.9141 24.7405 22.3718 22.2828 25.3927 22.2828C28.4137 22.2828 30.8714 24.7405 30.8714 27.7615C30.8714 30.7824 28.4137 33.2401 25.3927 33.2401ZM25.3927 25.0177C23.8798 25.0177 22.6489 26.2486 22.6489 27.7615C22.6489 29.2744 23.8798 30.5053 25.3927 30.5053C26.9057 30.5053 28.1365 29.2744 28.1365 27.7615C28.1365 26.2486 26.9057 25.0177 25.3927 25.0177Z" fill="#4C4DFF"/>
<path d="M52.5042 19.0624C52.1445 19.0624 51.7917 18.9161 51.5374 18.6617C51.283 18.4074 51.1367 18.0546 51.1367 17.695C51.1367 17.3353 51.283 16.9825 51.5374 16.7282C51.7917 16.4738 52.1445 16.3275 52.5042 16.3275C52.8638 16.3275 53.2166 16.4738 53.4709 16.7282C53.7253 16.9825 53.8716 17.3353 53.8716 17.695C53.8716 18.0546 53.7253 18.4074 53.4709 18.6617C53.2166 18.9162 52.8638 19.0624 52.5042 19.0624Z" fill="#4C4DFF"/>
</g>
<defs>
<clipPath id="clip0_511_947">
<rect width="70" height="70" fill="white"/>
</clipPath>
</defs>
</svg>
