<svg xmlns="http://www.w3.org/2000/svg" xmlns:xlink="http://www.w3.org/1999/xlink"><defs>
<clipPath id="clip0_511_145">
<rect width="70" height="70" fill="white"/>
</clipPath>

<clipPath id="clip0_511_947">
<rect width="70" height="70" fill="white"/>
</clipPath>

<clipPath id="clip0_288_1058">
<rect width="10.6667" height="10.6667" fill="white" transform="translate(4.66663 4.66675)"/>
</clipPath>

<clipPath id="clip0_273_1533">
<rect width="30" height="30" fill="white"/>
</clipPath>
</defs><symbol id="icon-arrow-right" viewBox="0 0 11 18">
<path d="M1.66656 1.22222L9.44434 8.99999L1.66656 16.7778" stroke="#4C4DFF" stroke-width="2" stroke-linecap="round" stroke-linejoin="round"/>
</symbol><symbol id="icon-arrow" viewBox="0 0 11 18">
<path d="M9.33344 16.7778L1.55566 9.00001L9.33344 1.22223" stroke="#4C4DFF" stroke-width="2" stroke-linecap="round" stroke-linejoin="round"/>
</symbol><symbol id="icon-clock" viewBox="0 0 16 16">
<path d="M8.00016 14.6668C11.6821 14.6668 14.6668 11.6821 14.6668 8.00016C14.6668 4.31826 11.6821 1.3335 8.00016 1.3335C4.31826 1.3335 1.3335 4.31826 1.3335 8.00016C1.3335 11.6821 4.31826 14.6668 8.00016 14.6668Z" fill="white" stroke="white" stroke-linecap="round" stroke-linejoin="round"/>
<path d="M8 4V8L10.6667 9.33333" stroke="#F46513" stroke-linecap="round" stroke-linejoin="round"/>
</symbol><symbol id="icon-cross" viewBox="0 0 24 24">
<path d="M18 6L6 18" stroke="#25282B" stroke-linecap="round" stroke-linejoin="round"/>
<path d="M6 6L18 18" stroke="#25282B" stroke-linecap="round" stroke-linejoin="round"/>
</symbol><symbol id="icon-feature-1" viewBox="0 0 70 70">
<path d="M65.3335 45.2604C61.8282 42.0744 57.1099 40.8577 52.5676 41.9292L43.8722 33.2337L58.9548 18.1512C59.1001 18.0059 59.2044 17.8357 59.2706 17.6547H62.8842C63.3949 17.6547 63.8631 17.3698 64.0981 16.9164L69.799 5.90754C70.073 5.37866 69.9728 4.73344 69.5518 4.31228L65.6947 0.455345C65.2735 0.0341785 64.6279 -0.0657477 64.0994 0.208058L53.0907 5.90905C52.6372 6.14389 52.3524 6.61208 52.3524 7.12292V10.7365C52.1714 10.8027 52.0013 10.907 51.8559 11.0523L36.7732 26.1349L28.0423 17.404C29.1381 12.6372 27.7243 7.62761 24.2557 4.15904C22.0572 1.96053 19.2718 0.570445 16.2006 0.138752C13.2326 -0.278176 10.1483 0.266702 7.51647 1.67332C7.13467 1.87741 6.87221 2.25019 6.80865 2.67833C6.74508 3.10646 6.88821 3.53939 7.19414 3.84559L13.9672 10.6186C14.414 11.0652 14.6599 11.659 14.6599 12.2907C14.6599 12.9223 14.4138 13.5161 13.9672 13.9627C13.0456 14.8846 11.5452 14.8849 10.6231 13.9627L3.85105 7.19059C3.54499 6.88452 3.11261 6.74126 2.68379 6.80496C2.25565 6.86839 1.88288 7.13099 1.67879 7.51279C-1.39282 13.2598 -0.164176 20.3398 4.66632 24.7303C8.1718 27.9163 12.8899 29.1332 17.4323 28.0615L23.0768 33.706C22.3553 33.9411 21.677 34.3434 21.1047 34.9157L2.90592 53.1147C-0.950052 56.9708 -0.950052 63.2451 2.90592 67.1011C4.77376 68.969 7.25743 69.9977 9.89912 69.9977C12.5408 69.9977 15.0243 68.969 16.8923 67.1011L19.9032 64.09C20.437 63.5562 20.437 62.6906 19.9032 62.1568C19.3693 61.623 18.504 61.623 17.9699 62.1568L14.959 65.1677C12.169 67.9579 7.62897 67.9577 4.83897 65.1677C2.04896 62.3776 2.04896 57.8379 4.83897 55.0477L19.4282 40.4585L29.5482 50.5785L26.6694 53.4574C26.1355 53.9912 26.1355 54.8568 26.6694 55.3906C27.2033 55.9244 28.0686 55.9244 28.6027 55.3906L35.091 48.9022C35.6531 48.3401 36.0631 47.6667 36.3033 46.9325L41.9575 52.5867C40.8617 57.3535 42.2756 62.3631 45.7442 65.8317C47.9427 68.0302 50.7281 69.4203 53.7992 69.852C54.4502 69.9434 55.1066 69.9887 55.7628 69.9887C58.0984 69.9887 60.4288 69.4156 62.4834 68.3174C62.8652 68.1133 63.1276 67.7405 63.1912 67.3124C63.2548 66.8843 63.1118 66.4513 62.8057 66.1451L56.0326 59.372C55.5859 58.9254 55.34 58.3316 55.34 57.7001C55.34 57.0684 55.586 56.4746 56.0326 56.028C56.9548 55.1059 58.4552 55.1061 59.3768 56.028L66.1489 62.8001C66.4549 63.1061 66.8868 63.2492 67.3162 63.1858C67.7443 63.1223 68.1171 62.8597 68.3212 62.4779C71.3927 56.731 70.1642 49.6509 65.3335 45.2604ZM64.4687 3.09567L66.9114 5.53832L62.0527 14.9207H57.6577L55.0863 12.3493V7.95432L64.4687 3.09567ZM52.8225 13.9519L56.0549 17.1844L33.2384 40.0012L30.0059 36.7687L52.8225 13.9519ZM17.4529 25.228C13.5947 26.3741 9.50255 25.4316 6.50504 22.7072C3.07898 19.5932 1.89532 14.8052 3.33611 10.5423L8.68975 15.8961C10.6776 17.8839 13.9123 17.8839 15.9004 15.8961C16.8635 14.933 17.3939 13.6527 17.3939 12.2907C17.3939 10.9287 16.8635 9.64842 15.9004 8.68524L10.5439 3.32874C14.6339 1.93469 19.1779 2.94762 22.3225 6.09236C25.2791 9.049 26.3857 13.3954 25.2104 17.4357C25.0709 17.9147 25.2035 18.4314 25.5562 18.7842L34.8401 28.0681L32.423 30.4851L27.3101 25.3724C26.7761 24.8386 25.9108 24.8386 25.3767 25.3724C24.8429 25.9062 24.8429 26.7717 25.3767 27.3056L30.4896 32.4183L28.0726 34.8354L18.8088 25.5717C18.4542 25.2171 17.9337 25.0849 17.4529 25.228ZM33.1579 46.9691L31.4817 48.6453L21.3616 38.5253L23.038 36.849C23.9146 35.9719 25.3419 35.9718 26.2192 36.849L33.1579 43.7878C34.035 44.6648 34.035 46.0921 33.1579 46.9691ZM66.6637 59.4486L61.3101 54.0948C60.3471 53.1318 59.0666 52.6015 57.7048 52.6015C56.3429 52.6015 55.0625 53.1318 54.0994 54.0948C53.1364 55.0578 52.606 56.3381 52.606 57.7002C52.606 59.0621 53.1364 60.3424 54.0994 61.3055L59.4562 66.6623C55.3665 68.0562 50.8222 67.0434 47.6776 63.8986C44.721 60.942 43.6144 56.5956 44.7898 52.5553C44.9292 52.0763 44.7966 51.5596 44.4439 51.2068L35.1717 41.9346L37.5888 39.5175L42.6901 44.6186C42.9571 44.8856 43.3069 45.019 43.6567 45.019C44.0065 45.019 44.3563 44.8855 44.6233 44.6186C45.1571 44.0848 45.1571 43.2192 44.6233 42.6854L39.522 37.5843L41.9389 35.1669L51.191 44.419C51.5459 44.7738 52.0663 44.906 52.547 44.7628C56.4053 43.6168 60.4973 44.5593 63.4948 47.2837C66.9209 50.3977 68.1045 55.1856 66.6637 59.4486Z" fill="#4C4DFF"/>
<path d="M23.2854 57.4065C22.9259 57.4065 22.5732 57.5528 22.3191 57.807C22.0649 58.0613 21.9185 58.414 21.9185 58.7735C21.9185 59.1344 22.0647 59.4857 22.3191 59.7399C22.5732 59.9942 22.9259 60.1405 23.2854 60.1405C23.645 60.1405 23.9976 59.9942 24.2519 59.7399C24.5062 59.4857 24.6524 59.1344 24.6524 58.7735C24.6524 58.414 24.5063 58.0613 24.2519 57.807C23.9976 57.5528 23.645 57.4065 23.2854 57.4065Z" fill="#4C4DFF"/>
</symbol><symbol id="icon-feature-2" viewBox="0 0 70 70">
<g clip-path="url(#clip0_511_145)">
<path d="M29.6979 3.20317C29.4423 2.94887 29.0909 2.80258 28.73 2.80258C28.3704 2.80258 28.0177 2.94887 27.7634 3.20317C27.5091 3.45746 27.3628 3.8102 27.3628 4.16977C27.3628 4.52934 27.5091 4.88207 27.7634 5.13637C28.0177 5.39067 28.3704 5.53696 28.73 5.53696C29.0909 5.53696 29.4423 5.39067 29.6979 5.13637C29.9522 4.88207 30.0972 4.52934 30.0972 4.16977C30.0972 3.8102 29.9522 3.45746 29.6979 3.20317Z" fill="#4C4DFF"/>
<path d="M48.2569 25.5425L47.1242 19.7986C46.6623 17.4558 45.5243 15.3261 43.8332 13.64L41.8965 11.7085V4.16976C41.8965 3.41467 41.2844 2.80258 40.5293 2.80258C39.7742 2.80258 39.1621 3.41467 39.1621 4.16976V12.2759C39.1621 12.6392 39.3068 12.9875 39.5639 13.244L41.9025 15.576C43.2071 16.877 44.0851 18.52 44.4415 20.3274L45.5742 26.0713C45.6184 26.2956 45.5716 26.5229 45.4424 26.7115C45.3132 26.9 45.118 27.0258 44.8929 27.0654C44.4575 27.1431 44.0326 26.8657 43.927 26.4354L43.3417 24.0483C43.1354 23.2072 42.3619 22.6717 41.5021 22.776C40.6424 22.8799 40.0184 23.5839 40.0184 24.4499V35.5707C40.0184 36.0095 39.6613 36.3666 39.2224 36.3666C38.819 36.3666 38.4855 36.0648 38.4341 35.6752V29.8681C38.4341 29.113 37.822 28.501 37.0669 28.501C37.0655 28.501 37.0643 28.5011 37.0631 28.5011C37.0619 28.5011 37.0605 28.501 37.0593 28.501C36.3042 28.501 35.6921 29.113 35.6921 29.8681V35.5707C35.6921 35.6452 35.6952 35.719 35.6997 35.7923V37.6136C35.6997 38.0525 35.3426 38.4096 34.9038 38.4096C34.4649 38.4096 34.1078 38.0525 34.1078 37.6136V35.7915C34.1123 35.7183 34.1154 35.6449 34.1154 35.5707V29.8681C34.1154 29.113 33.5034 28.501 32.7483 28.501C32.747 28.501 32.7457 28.5011 32.7444 28.5011C32.7432 28.5011 32.7418 28.501 32.7406 28.501C31.9855 28.501 31.3734 29.113 31.3734 29.8681V35.6748C31.3222 36.0646 30.9886 36.3668 30.585 36.3668C30.1461 36.3668 29.789 36.0097 29.789 35.5708V33.5312C29.7935 33.4581 29.7967 33.3847 29.7967 33.3104V29.8681C29.7967 29.113 29.1846 28.501 28.4295 28.501C28.4282 28.501 28.4269 28.5011 28.4256 28.5011C28.4244 28.5011 28.423 28.501 28.4218 28.501C27.6667 28.501 27.0546 29.113 27.0546 29.8681V33.4145C27.0034 33.8043 26.6698 34.1064 26.2662 34.1064C25.8273 34.1064 25.4702 33.7493 25.4702 33.3104V28.5211V25.2763V21.2891C25.4702 18.818 26.4338 16.4961 28.1837 14.7513L29.6952 13.2442C29.9524 12.9877 30.097 12.6393 30.097 12.2761V9.04527C30.097 8.29018 29.4849 7.67809 28.7298 7.67809C27.9747 7.67809 27.3627 8.29018 27.3627 9.04527V11.7085L26.2529 12.815C23.9849 15.0766 22.7358 18.086 22.7358 21.2889V25.2762V28.5209V33.3103C22.7358 35.2569 24.3196 36.8406 26.2662 36.8406C26.6046 36.8406 26.9316 36.7918 27.2417 36.7024C27.7146 38.0954 29.034 39.1009 30.5848 39.1009C30.9499 39.1009 31.3021 39.0452 31.6335 38.9419C32.1594 40.2319 33.4267 41.1438 34.9035 41.1438C36.3803 41.1438 37.648 40.2321 38.1739 38.942C38.5053 39.0454 38.8575 39.101 39.2225 39.101C41.1691 39.101 42.7529 37.5173 42.7529 35.5707V29.2019C43.4968 29.7018 44.4259 29.9242 45.3679 29.7584C46.3225 29.5901 47.15 29.0569 47.698 28.2572C48.246 27.4575 48.4443 26.4935 48.2569 25.5425Z" fill="#4C4DFF"/>
<path d="M34.0535 53.2101C33.8861 52.92 33.6814 52.6599 33.4471 52.4333C34.4164 51.3269 34.6271 49.6821 33.8519 48.3394C33.6698 48.0239 33.446 47.7472 33.1914 47.5122C33.4775 47.1446 33.6903 46.7202 33.8144 46.2567C34.0585 45.3458 33.9332 44.3945 33.4617 43.5777C32.7234 42.299 31.3004 41.6575 29.9205 41.8467C29.8429 41.5044 29.7135 41.1719 29.5329 40.8592C29.0615 40.0426 28.3001 39.4584 27.3893 39.2143C26.4784 38.9702 25.5271 39.0954 24.7103 39.5671L19.1948 42.7514C19.2557 41.8572 18.9841 40.9415 18.3692 40.2087C17.746 39.466 16.8706 39.016 15.9041 38.9412C14.9382 38.8672 14.0035 39.1766 13.2735 39.8145L8.86544 43.6675C7.06745 45.2391 5.79213 47.2894 5.17731 49.5969L4.47321 52.2399L0.684322 54.4274C0.0303958 54.8049 -0.193686 55.6411 0.183931 56.295C0.437134 56.7336 0.896646 56.9789 1.36915 56.9787C1.60102 56.9787 1.83618 56.9197 2.05151 56.7954L6.3319 54.3241C6.64649 54.1424 6.8759 53.8431 6.96942 53.4921L7.81967 50.3007C8.29395 48.5205 9.27792 46.9387 10.6651 45.7262L15.0732 41.8732C15.2453 41.7227 15.4651 41.6497 15.6934 41.6673C15.9214 41.685 16.1277 41.7911 16.2746 41.9662C16.5594 42.3054 16.5318 42.8113 16.212 43.1177L14.4374 44.8182C13.8121 45.4173 13.7355 46.3547 14.2553 47.0475C14.7752 47.7403 15.6969 47.9288 16.4468 47.4955L26.0776 41.9352C26.2617 41.8288 26.4762 41.8006 26.6817 41.8556C26.887 41.9106 27.0587 42.0424 27.1651 42.2265C27.2713 42.4107 27.2996 42.6252 27.2447 42.8305C27.1965 43.0103 27.0869 43.1614 26.9373 43.2683L21.9312 46.1586C21.2773 46.536 21.0532 47.3722 21.4308 48.0261C21.4315 48.0272 21.4322 48.0282 21.4329 48.0293C21.4336 48.0304 21.434 48.0316 21.4347 48.0327C21.8122 48.6866 22.6482 48.9106 23.3023 48.5331L28.2409 45.6818C28.3052 45.6448 28.3675 45.6051 28.4289 45.5645L30.0064 44.6538C30.3865 44.4344 30.8743 44.565 31.0939 44.9452C31.3133 45.3253 31.1826 45.8131 30.8025 46.0326L29.2244 46.9437C29.1589 46.9764 29.0937 47.0104 29.0294 47.0475L24.0907 49.8988C23.4368 50.2762 23.2127 51.1124 23.5903 51.7663C23.6416 51.8548 23.7042 51.9381 23.7737 52.0131C24.0359 52.2987 24.4026 52.4568 24.7794 52.4568C25.0112 52.4568 25.2464 52.3977 25.4617 52.2734L30.4904 49.3701C30.8535 49.2195 31.282 49.3572 31.4839 49.7068C31.7033 50.0869 31.5726 50.5747 31.1926 50.7943L29.427 51.8136C29.3611 51.8465 29.2956 51.8808 29.2312 51.9178L26.25 53.639C25.5961 54.0165 25.372 54.8526 25.7497 55.5066C25.993 55.9261 26.4528 56.197 26.9387 56.197C27.1706 56.197 27.4057 56.1379 27.6211 56.0136L30.6927 54.2403C30.8538 54.1733 31.0311 54.1604 31.2024 54.2064C31.4078 54.2615 31.5793 54.3931 31.6857 54.5773C31.9051 54.9574 31.7744 55.4452 31.3944 55.6647L27.0127 58.1945L20.9835 61.6754C18.8434 62.911 16.3508 63.2372 13.9649 62.5943L11.9039 62.0388C11.5529 61.9442 11.1791 61.9933 10.8645 62.175L6.58415 64.6463C5.93022 65.0238 5.70614 65.86 6.08376 66.5139C6.33696 66.9525 6.79647 67.1978 7.26897 67.1976C7.50085 67.1976 7.736 67.1386 7.95133 67.0143L11.7402 64.8268L13.2533 65.2346C16.3457 66.0678 19.5767 65.6449 22.3506 64.0435L25.8034 62.0501C25.8034 62.0501 25.8035 62.0501 25.8035 62.0499L28.3797 60.5626L28.6136 60.4275L32.7614 58.0327C34.4473 57.0594 35.0268 54.896 34.0535 53.2101Z" fill="#4C4DFF"/>
<path d="M69.3168 54.4273L65.5279 52.2398L65.1245 50.7255C64.2999 47.6304 62.3182 45.044 59.5445 43.4425L53.5153 39.9615L49.1336 37.4317C48.3169 36.9602 47.3654 36.835 46.4547 37.079C45.5439 37.3231 44.7825 37.9073 44.3111 38.7239C44.1421 39.0165 44.0212 39.3237 43.9435 39.6362C43.4178 39.5307 42.8709 39.546 42.3379 39.689C41.4271 39.933 40.6657 40.5172 40.1943 41.3338C40.0138 41.6465 39.8845 41.979 39.8068 42.3212C38.4269 42.1321 37.0039 42.7738 36.2657 44.0524C35.5274 45.3311 35.6832 46.8842 36.537 47.9847C36.2795 48.2231 36.0561 48.5013 35.8756 48.814C34.9023 50.4999 35.482 52.6633 37.1677 53.6366L42.6832 56.8211C41.8786 57.2155 41.221 57.9087 40.8938 58.8075C40.5623 59.7184 40.6102 60.7016 41.0287 61.576C41.4473 62.4505 42.183 63.1044 43.1004 63.4175L48.641 65.3086C50.9011 66.0801 53.3145 66.1592 55.6201 65.538L58.2611 64.8262L62.05 67.0137C62.2653 67.138 62.5003 67.1972 62.7323 67.1971C63.2048 67.1971 63.6643 66.9519 63.9175 66.5133C64.2952 65.8594 64.0711 65.0232 63.4172 64.6458L59.1368 62.1744C58.8222 61.9927 58.4482 61.9436 58.0974 62.0384L54.9086 62.8977C53.1299 63.3771 51.2679 63.3159 49.5242 62.7208L43.9834 60.8297C43.7671 60.7558 43.5936 60.6016 43.4949 60.3954C43.3962 60.1893 43.385 59.9574 43.4632 59.7426C43.6145 59.3264 44.0665 59.0977 44.4917 59.2212L46.8516 59.9079C47.6833 60.1502 48.5334 59.7475 48.8734 58.9509C49.2133 58.1543 48.9158 57.262 48.1658 56.829L38.5349 51.2686C38.1548 51.0492 38.0241 50.5614 38.2436 50.1812C38.3499 49.997 38.5215 49.8654 38.7269 49.8103C38.8983 49.7643 39.0755 49.7772 39.2364 49.844L44.2657 52.7477C44.4811 52.8719 44.7161 52.9311 44.9481 52.931C45.3245 52.931 45.6909 52.7732 45.9531 52.4882C46.023 52.413 46.0857 52.3294 46.1373 52.2406C46.5149 51.5867 46.2908 50.7505 45.6369 50.373L40.6983 47.5217C40.6338 47.4845 40.5682 47.4502 40.5022 47.4173L38.9251 46.5069C38.545 46.2874 38.4143 45.7996 38.6338 45.4194C38.7401 45.2352 38.9117 45.1036 39.1172 45.0485C39.3227 44.9935 39.5371 45.0218 39.7211 45.1281L41.2984 46.0387C41.3598 46.0795 41.4223 46.119 41.4865 46.1562L46.4251 49.0075C46.6404 49.1317 46.8754 49.1909 47.1074 49.1908C47.484 49.1908 47.8504 49.0329 48.1126 48.7477C48.1825 48.6726 48.2449 48.5891 48.2966 48.5004C48.6742 47.8464 48.4502 47.0103 47.7962 46.6328L42.79 43.7424C42.6406 43.6355 42.5311 43.4844 42.4828 43.3046C42.4278 43.0993 42.456 42.8848 42.5624 42.7006C42.6687 42.5165 42.8403 42.3847 43.0458 42.3297C43.251 42.2747 43.4657 42.3029 43.6498 42.4093L45.4161 43.4291C45.4771 43.4695 45.5393 43.5089 45.6035 43.5461L48.5847 45.2672C48.8 45.3915 49.035 45.4507 49.267 45.4506C49.6434 45.4506 50.01 45.2927 50.2721 45.0076C50.3419 44.9323 50.4043 44.8489 50.4561 44.7601C50.8337 44.1062 50.6096 43.2701 49.9557 42.8926L46.8845 41.1193C46.5726 40.8801 46.4777 40.4401 46.6794 40.0907C46.7857 39.9065 46.9573 39.7747 47.1627 39.7197C47.3683 39.6649 47.5825 39.6929 47.7667 39.7993L51.9145 42.1941L52.1484 42.3292L54.7246 43.8165C54.7246 43.8165 54.7247 43.8165 54.7247 43.8167L58.1775 45.8101C60.3176 47.0458 61.8464 49.0412 62.4825 51.429L63.0322 53.4916C63.1257 53.8425 63.3551 54.1419 63.6697 54.3235L67.9501 56.7948C68.1654 56.9191 68.4004 56.9782 68.6324 56.9782C69.1049 56.9782 69.5644 56.733 69.8176 56.2944C70.1948 55.641 69.9708 54.8049 69.3168 54.4273Z" fill="#4C4DFF"/>
</g>

</symbol><symbol id="icon-feature-3" viewBox="0 0 70 70">
<path d="M47.3047 0C46.5497 0 45.9375 0.612227 45.9375 1.36719V7.65625C45.9375 8.41121 46.5497 9.02344 47.3047 9.02344C48.0596 9.02344 48.6719 8.41121 48.6719 7.65625V1.36719C48.6719 0.612227 48.0596 0 47.3047 0Z" fill="#4C4DFF"/>
<path d="M15.8594 42.6562C15.1047 42.6562 14.4922 43.2688 14.4922 44.0234C14.4922 44.7781 15.1047 45.3906 15.8594 45.3906C16.6141 45.3906 17.2266 44.7781 17.2266 44.0234C17.2266 43.2688 16.6141 42.6562 15.8594 42.6562Z" fill="#4C4DFF"/>
<path d="M66.4453 39.9219C66.4453 36.9064 63.992 34.4531 60.9766 34.4531H50.7702C52.3503 30.4058 52.9899 25.642 52.8665 21.4014C52.843 20.5922 52.812 20.1242 52.77 19.8296C52.6993 16.8755 50.2737 14.4922 47.3047 14.4922C44.2892 14.4922 41.8359 16.9455 41.8359 19.9609V21.3281C41.8359 29.975 30.7325 34.8333 22.353 36.9167C21.7194 35.4683 20.2732 34.4531 18.5938 34.4531H4.92188C4.16691 34.4531 3.55469 35.0654 3.55469 35.8203V68.6328C3.55469 69.3878 4.16691 70 4.92188 70H18.5938C20.262 70 21.6999 68.9983 22.34 67.5652C23.0338 67.7432 23.6779 67.9114 24.2725 68.0667C29.046 69.3134 31.6755 70 38.0707 70H52.7734C55.7889 70 58.2422 67.5467 58.2422 64.5312C58.2422 63.4069 57.9008 62.361 57.3166 61.4909C59.4286 60.7522 60.9766 58.7342 60.9766 56.3281C60.9766 55.2079 60.6435 54.1585 60.0611 53.2845C62.1638 52.5446 63.7109 50.5312 63.7109 48.125C63.7109 47.0006 63.3696 45.9547 62.7854 45.0846C64.8974 44.346 66.4453 42.328 66.4453 39.9219ZM19.9609 65.8984C19.9609 66.6523 19.3476 67.2656 18.5938 67.2656H6.28906V37.1875H18.5938C19.3476 37.1875 19.9609 37.8008 19.9609 38.5547V65.8984ZM60.9766 42.6562C58.0441 42.6562 57.345 42.6562 54.1406 42.6562C53.3857 42.6562 52.7734 43.2685 52.7734 44.0234C52.7734 44.7784 53.3857 45.3906 54.1406 45.3906H58.2422C59.7499 45.3906 60.9766 46.6173 60.9766 48.125C60.9766 49.6352 59.7524 50.8594 58.2422 50.8594H51.4062C50.6513 50.8594 50.0391 51.4716 50.0391 52.2266C50.0391 52.9815 50.6513 53.5938 51.4062 53.5938H55.5078C56.9976 53.5938 58.2422 54.7839 58.2422 56.3281C58.2422 57.8383 57.018 59.0625 55.5078 59.0625C52.5753 59.0625 51.8763 59.0625 48.6719 59.0625C47.9169 59.0625 47.3047 59.6747 47.3047 60.4297C47.3047 61.1846 47.9169 61.7969 48.6719 61.7969H52.7734C54.2812 61.7969 55.5078 63.0235 55.5078 64.5312C55.5078 66.039 54.2812 67.2656 52.7734 67.2656H38.0707C32.0268 67.2656 29.6662 66.6492 24.9635 65.421C24.2745 65.2411 23.5189 65.0438 22.6953 64.8338V39.6519C32.5894 37.2951 44.5703 31.5425 44.5703 21.3281V19.9609C44.5703 18.4532 45.797 17.2266 47.3047 17.2266C48.8097 17.2266 50.0362 18.4513 50.0391 19.9567V19.9609C50.0391 20.5551 50.7806 27.8473 47.807 34.4531H43.2031C42.4482 34.4531 41.8359 35.0654 41.8359 35.8203C41.8359 36.5753 42.4482 37.1875 43.2031 37.1875C44.1578 37.1875 59.4182 37.1875 60.9766 37.1875C62.4843 37.1875 63.7109 38.4141 63.7109 39.9219C63.7109 41.4321 62.4868 42.6562 60.9766 42.6562Z" fill="#4C4DFF"/>
<path d="M15.8594 48.125C15.1044 48.125 14.4922 48.7372 14.4922 49.4922V60.4297C14.4922 61.1846 15.1044 61.7969 15.8594 61.7969C16.6143 61.7969 17.2266 61.1846 17.2266 60.4297V49.4922C17.2266 48.7372 16.6143 48.125 15.8594 48.125Z" fill="#4C4DFF"/>
<path d="M36.3672 17.2266H30.8984C30.1435 17.2266 29.5312 17.8388 29.5312 18.5938C29.5312 19.3487 30.1435 19.9609 30.8984 19.9609H36.3672C37.1221 19.9609 37.7344 19.3487 37.7344 18.5938C37.7344 17.8388 37.1221 17.2266 36.3672 17.2266Z" fill="#4C4DFF"/>
<path d="M63.7109 17.2266H58.2422C57.4872 17.2266 56.875 17.8388 56.875 18.5938C56.875 19.3487 57.4872 19.9609 58.2422 19.9609H63.7109C64.4659 19.9609 65.0781 19.3487 65.0781 18.5938C65.0781 17.8388 64.4659 17.2266 63.7109 17.2266Z" fill="#4C4DFF"/>
<path d="M59.8722 6.02653C59.3382 5.49278 58.4727 5.49278 57.9386 6.02653L54.0723 9.8928C53.5384 10.4267 53.5384 11.2924 54.0723 11.8264C54.6065 12.3603 55.4717 12.3602 56.0059 11.8264L59.8722 7.96015C60.4061 7.42626 60.4061 6.56056 59.8722 6.02653Z" fill="#4C4DFF"/>
<path d="M40.5372 9.8928L36.6709 6.02653C36.1369 5.49278 35.2715 5.49278 34.7373 6.02653C34.2034 6.56042 34.2034 7.42612 34.7373 7.96015L38.6036 11.8264C39.1379 12.3603 40.0032 12.3602 40.5372 11.8264C41.0711 11.2925 41.0711 10.4268 40.5372 9.8928Z" fill="#4C4DFF"/>
</symbol><symbol id="icon-feature-4" viewBox="0 0 70 70">
<g clip-path="url(#clip0_511_947)">
<path d="M29.3887 70.0007C27.2903 70.0007 25.2259 69.0236 23.9241 67.2145C23.0368 65.9812 21.5539 65.3672 20.0547 65.6117C19.6942 65.6705 19.3344 65.699 18.9793 65.6991C15.9198 65.6994 13.1602 63.5865 12.4395 60.5235C12.0916 59.0446 10.9569 57.9099 9.47806 57.562C6.05946 56.7578 3.82437 53.4128 4.38981 49.9469C4.63431 48.4475 4.02019 46.9648 2.78703 46.0776C-0.0635362 44.0264 -0.848311 40.0808 1.00033 37.0948C1.80001 35.8031 1.80001 34.1983 1.00033 32.9066C-0.848311 29.9208 -0.0635362 25.9751 2.78703 23.9239C4.02019 23.0366 4.63431 21.5539 4.38981 20.0545C3.82451 16.5885 6.05946 13.2435 9.47806 12.4393C10.9569 12.0914 12.0916 10.9567 12.4395 9.47785C13.2437 6.05924 16.5885 3.82402 20.0547 4.3896C21.5543 4.63423 23.0368 4.01998 23.924 2.78682C25.9751 -0.0638865 29.9209 -0.848388 32.9067 1.00012C34.1982 1.7998 35.8031 1.79994 37.0949 1.00012C40.0806 -0.848524 44.0263 -0.0637498 46.0776 2.78682C46.9648 4.02011 48.4478 4.63368 49.9471 4.3896C53.4126 3.82416 56.758 6.05924 57.5622 9.47785C57.9101 10.9567 59.0448 12.0914 60.5237 12.4393C63.9423 13.2435 66.1774 16.5885 65.6119 20.0545C65.3674 21.5539 65.9816 23.0366 67.2147 23.9238C70.0653 25.9749 70.8501 29.9205 69.0014 32.9065C68.2017 34.1982 68.2017 35.803 69.0014 37.0947C70.8501 40.0805 70.0653 44.0263 67.2147 46.0774C65.9816 46.9647 65.3674 48.4475 65.6119 49.9469C66.1772 53.4128 63.9423 56.7578 60.5237 57.562C59.0448 57.9099 57.9101 59.0446 57.5622 60.5235C56.758 63.9421 53.4131 66.1773 49.9471 65.6117C48.4481 65.3674 46.9651 65.9815 46.0778 67.2145C44.0266 70.0651 40.0808 70.8499 37.095 69.0012C35.8034 68.2014 34.1985 68.2013 32.9068 69.0012C31.8159 69.6769 30.5967 70.0007 29.3887 70.0007ZM20.7128 62.8232C22.8507 62.8232 24.8642 63.8387 26.144 65.6172C27.3595 67.3064 29.6976 67.7716 31.4671 66.676C33.6468 65.3266 36.3548 65.3265 38.5347 66.676C40.304 67.7716 42.6423 67.3065 43.8577 65.6172C45.3551 63.5362 47.8571 62.4994 50.3873 62.9125C52.4406 63.2476 54.4235 61.9232 54.8999 59.8972C55.487 57.4016 57.4018 55.4868 59.8974 54.8997C61.9231 54.4232 63.2476 52.4409 62.9126 50.387C62.4999 47.8567 63.5364 45.3547 65.6173 43.8575C67.3066 42.642 67.7717 40.3038 66.6761 38.5345C65.3266 36.3548 65.3266 33.6467 66.6761 31.4669C67.7717 29.6975 67.3065 27.3592 65.6173 26.1438C63.5364 24.6465 62.5 22.1445 62.9126 19.6143C63.2476 17.5602 61.9231 15.578 59.8973 15.1016C57.4017 14.5145 55.4869 12.5997 54.8998 10.1041C54.4233 8.07827 52.4412 6.75404 50.3871 7.08893C47.8568 7.50162 45.3548 6.4651 43.8576 4.38426C42.6421 2.69493 40.3039 2.22972 38.5345 3.32545C36.3548 4.67498 33.6468 4.67498 31.4669 3.32545C29.6977 2.23 27.3594 2.69493 26.1439 4.38426C24.6465 6.4651 22.1443 7.50148 19.6144 7.08893C17.5607 6.75404 15.5782 8.07827 15.1017 10.1043C14.5146 12.5999 12.5998 14.5147 10.1042 15.1017C8.07848 15.5783 6.75398 17.5605 7.089 19.6144C7.5017 22.1447 6.46518 24.6467 4.38434 26.1439C2.695 27.3595 2.22994 29.6977 3.32553 31.467C4.67506 33.6467 4.67506 36.3548 3.32553 38.5346C2.22994 40.3039 2.69514 42.6423 4.38434 43.8576C6.46518 45.355 7.50156 47.857 7.089 50.3872C6.75398 52.4412 8.07848 54.4235 10.1043 54.8999C12.5999 55.4869 14.5148 57.4017 15.1018 59.8973C15.5784 61.9232 17.561 63.2476 19.6145 62.9125C19.9822 62.8526 20.3494 62.8232 20.7128 62.8232Z" fill="#4C4DFF"/>
<path d="M35.0004 60.9814C20.6743 60.9814 9.01904 49.3262 9.01904 35.0001C9.01904 20.6739 20.6743 9.01868 35.0004 9.01868C39.7221 9.01868 44.3458 10.2983 48.3715 12.7192C49.0187 13.1084 49.228 13.9486 48.8388 14.5958C48.4496 15.2431 47.6091 15.4522 46.9623 15.063C43.3621 12.898 39.2257 11.7537 35.0006 11.7537C22.1824 11.7537 11.7541 22.1821 11.7541 35.0002C11.7541 47.8183 22.1824 58.2467 35.0006 58.2467C47.8187 58.2467 58.2471 47.8183 58.2471 35.0002C58.2471 30.8678 57.1494 26.8102 55.0728 23.266C54.691 22.6145 54.9098 21.7766 55.5613 21.3948C56.213 21.0132 57.0507 21.2318 57.4325 21.8833C59.7545 25.8464 60.9821 30.3821 60.9821 35.0001C60.9818 49.3262 49.3266 60.9814 35.0004 60.9814Z" fill="#4C4DFF"/>
<path d="M29.858 46.9548C29.6575 46.9548 29.454 46.9105 29.2616 46.8171C28.5823 46.4871 28.299 45.669 28.6289 44.9896L38.9115 23.8157C39.2415 23.1364 40.0596 22.8529 40.739 23.183C41.4183 23.513 41.7017 24.3311 41.3717 25.0105L31.0891 46.1844C30.8527 46.6713 30.3653 46.9548 29.858 46.9548Z" fill="#4C4DFF"/>
<path d="M44.609 47.7173C41.5881 47.7173 39.1304 45.2596 39.1304 42.2386C39.1304 39.2177 41.5881 36.7599 44.609 36.7599C47.63 36.7599 50.0877 39.2177 50.0877 42.2386C50.0878 45.2596 47.6301 47.7173 44.609 47.7173ZM44.609 39.4947C43.0961 39.4947 41.8653 40.7255 41.8653 42.2385C41.8653 43.7514 43.0961 44.9822 44.609 44.9822C46.122 44.9822 47.3528 43.7514 47.3528 42.2385C47.3528 40.7255 46.122 39.4947 44.609 39.4947Z" fill="#4C4DFF"/>
<path d="M25.3927 33.2401C22.3718 33.2401 19.9141 30.7824 19.9141 27.7615C19.9141 24.7405 22.3718 22.2828 25.3927 22.2828C28.4137 22.2828 30.8714 24.7405 30.8714 27.7615C30.8714 30.7824 28.4137 33.2401 25.3927 33.2401ZM25.3927 25.0177C23.8798 25.0177 22.6489 26.2486 22.6489 27.7615C22.6489 29.2744 23.8798 30.5053 25.3927 30.5053C26.9057 30.5053 28.1365 29.2744 28.1365 27.7615C28.1365 26.2486 26.9057 25.0177 25.3927 25.0177Z" fill="#4C4DFF"/>
<path d="M52.5042 19.0624C52.1445 19.0624 51.7917 18.9161 51.5374 18.6617C51.283 18.4074 51.1367 18.0546 51.1367 17.695C51.1367 17.3353 51.283 16.9825 51.5374 16.7282C51.7917 16.4738 52.1445 16.3275 52.5042 16.3275C52.8638 16.3275 53.2166 16.4738 53.4709 16.7282C53.7253 16.9825 53.8716 17.3353 53.8716 17.695C53.8716 18.0546 53.7253 18.4074 53.4709 18.6617C53.2166 18.9162 52.8638 19.0624 52.5042 19.0624Z" fill="#4C4DFF"/>
</g>

</symbol><symbol id="icon-instagram" viewBox="0 0 30 30">
<path d="M20.625 0H9.375C4.19813 0 0 4.19813 0 9.375V20.625C0 25.8019 4.19813 30 9.375 30H20.625C25.8019 30 30 25.8019 30 20.625V9.375C30 4.19813 25.8019 0 20.625 0ZM27.1875 20.625C27.1875 24.2437 24.2437 27.1875 20.625 27.1875H9.375C5.75625 27.1875 2.8125 24.2437 2.8125 20.625V9.375C2.8125 5.75625 5.75625 2.8125 9.375 2.8125H20.625C24.2437 2.8125 27.1875 5.75625 27.1875 9.375V20.625Z" fill="white"/>
<path d="M15 7.5C10.8581 7.5 7.5 10.8581 7.5 15C7.5 19.1419 10.8581 22.5 15 22.5C19.1419 22.5 22.5 19.1419 22.5 15C22.5 10.8581 19.1419 7.5 15 7.5ZM15 19.6875C12.4162 19.6875 10.3125 17.5837 10.3125 15C10.3125 12.4144 12.4162 10.3125 15 10.3125C17.5837 10.3125 19.6875 12.4144 19.6875 15C19.6875 17.5837 17.5837 19.6875 15 19.6875Z" fill="white"/>
<path d="M23.0624 7.93674C23.6143 7.93674 24.0617 7.4893 24.0617 6.93736C24.0617 6.38542 23.6143 5.93799 23.0624 5.93799C22.5104 5.93799 22.063 6.38542 22.063 6.93736C22.063 7.4893 22.5104 7.93674 23.0624 7.93674Z" fill="white"/>
</symbol><symbol id="icon-location" viewBox="0 0 16 16">
<path d="M14 6.6665C14 11.3332 8 15.3332 8 15.3332C8 15.3332 2 11.3332 2 6.6665C2 5.0752 2.63214 3.54908 3.75736 2.42386C4.88258 1.29864 6.4087 0.666504 8 0.666504C9.5913 0.666504 11.1174 1.29864 12.2426 2.42386C13.3679 3.54908 14 5.0752 14 6.6665Z" fill="white" stroke="white" stroke-linecap="round" stroke-linejoin="round"/>
<path d="M8 9C9.10457 9 10 8.10457 10 7C10 5.89543 9.10457 5 8 5C6.89543 5 6 5.89543 6 7C6 8.10457 6.89543 9 8 9Z" fill="#F46513"/>
</symbol><symbol id="icon-logo" viewBox="0 0 249 33">
<path d="M17.3545 0L0.0888672 11.1563L7.79199 16.1146L17.3545 9.91667L26.917 16.1146L34.6201 11.1563L17.3545 0Z" fill="#F46513"/>
<path d="M7.79199 16.1145L0.0888672 21.0728L17.3545 32.2291L34.6201 21.0728L26.917 16.1145L17.3545 22.3124L7.79199 16.1145Z" fill="#4C4DFF"/>
<path d="M47.2812 6.46362V23.5522H51.7969V18.1511H54.0104C58.2604 18.1511 61.4479 16.823 61.4479 12.3074C61.4479 7.79175 58.2604 6.46362 54.0104 6.46362H47.2812V6.46362ZM56.8437 12.3074C56.8437 13.8126 55.6042 14.2553 54.276 14.2553H51.7969V10.3595H54.276C55.6042 10.3595 56.8437 10.8022 56.8437 12.3074Z" fill="#102440"/>
<path d="M62.0679 17.7083C62.0679 21.6927 65.1668 23.9062 69.0627 23.9062C70.922 23.9062 72.3387 23.6406 73.4012 23.2864V20.1875C72.4272 20.5416 71.3647 20.7187 70.0366 20.7187C68.3543 20.7187 66.7606 20.1875 66.3179 18.9479H74.021C74.8179 15.4062 73.3127 11.5104 68.2658 11.5104C65.6981 11.4218 62.0679 13.1041 62.0679 17.7083ZM70.2137 16.3802H66.3179C66.3179 15.1406 67.2918 14.4323 68.4429 14.4323C70.0366 14.4323 70.3023 15.8489 70.2137 16.3802Z" fill="#102440"/>
<path d="M79.6873 13.3698V11.776H76.0571V23.4635H80.2186V16.8229C80.9269 15.6719 82.6978 15.2292 84.2915 15.5833V11.5989C81.9894 11.3333 80.4842 12.2187 79.6873 13.3698Z" fill="#102440"/>
<path d="M91.375 23.5521V15.2292H94.474V11.776H91.375V10.9792C91.375 9.91667 92.2604 9.47396 93.1458 9.47396C93.8542 9.47396 94.474 9.65104 94.9167 9.91667V6.55208C94.1198 6.28646 93.1458 6.10938 92.0833 6.10938C89.7812 6.10938 87.2135 7.17187 87.2135 10.8021V11.776H85.2656V15.2292H87.2135V23.5521H91.375Z" fill="#102440"/>
<path d="M95.271 17.7083C95.271 21.6927 98.37 23.9062 102.266 23.9062C104.125 23.9062 105.542 23.6406 106.604 23.2864V20.1875C105.63 20.5416 104.568 20.7187 103.24 20.7187C101.557 20.7187 99.9637 20.1875 99.521 18.9479H107.224C108.021 15.4062 106.516 11.5104 101.469 11.5104C98.8127 11.4218 95.271 13.1041 95.271 17.7083ZM103.328 16.3802H99.4325C99.4325 15.1406 100.406 14.4323 101.557 14.4323C103.151 14.4323 103.505 15.8489 103.328 16.3802Z" fill="#102440"/>
<path d="M108.641 17.8854C108.641 22.0469 111.828 23.9062 115.104 23.9062C116.609 23.9062 117.938 23.6406 119.089 23.1094V19.5677C118.292 20.0104 117.141 20.3646 115.901 20.3646C114.307 20.3646 112.891 19.5677 112.891 17.7083C112.891 15.6719 114.396 14.9635 115.99 14.9635C117.052 14.9635 118.203 15.3177 119 15.7604V12.2188C117.937 11.6875 116.698 11.4219 115.37 11.4219C112.094 11.4219 108.641 13.2813 108.641 17.8854Z" fill="#102440"/>
<path d="M122.099 8.50008V11.7761H120.239V15.2292H122.099V19.8334C122.099 22.9324 124.224 23.8178 126.526 23.8178C127.765 23.8178 128.739 23.6407 129.713 23.2865V20.099C129.093 20.2761 128.474 20.3647 127.854 20.3647C126.791 20.3647 126.349 19.8334 126.349 18.948V15.1407H129.536V11.6876H126.349V7.52612L122.099 8.50008Z" fill="#102440"/>
<path d="M135.844 13.3699V11.7761H132.125V28.8647H136.286V22.5782C136.995 23.2865 138.146 23.9063 139.74 23.9063C143.635 23.9063 145.406 20.7188 145.406 17.7084C145.406 14.698 143.635 11.5105 139.74 11.5105C137.703 11.422 136.375 12.3959 135.844 13.3699ZM141.156 17.7084C141.156 19.0365 140.359 20.5417 138.677 20.5417C137.526 20.5417 136.641 19.8334 136.286 19.0365V16.3803C136.641 15.5834 137.526 14.8751 138.677 14.8751C140.448 14.8751 141.156 16.2917 141.156 17.7084Z" fill="#102440"/>
<path d="M146.823 17.7084C146.823 21.8699 149.922 23.9063 153.375 23.9063C156.828 23.9063 159.927 21.8699 159.927 17.7084C159.927 13.547 156.828 11.5105 153.375 11.5105C149.922 11.5105 146.823 13.547 146.823 17.7084ZM155.677 17.7084C155.677 19.0365 155.058 20.2761 153.375 20.2761C151.693 20.2761 151.073 19.0365 151.073 17.7084C151.073 16.3803 151.693 15.1407 153.375 15.1407C155.146 15.1407 155.677 16.3803 155.677 17.7084Z" fill="#102440"/>
<path d="M162.672 8.50008V11.7761H160.812V15.2292H162.672V19.8334C162.672 22.9324 164.797 23.8178 167.099 23.8178C168.339 23.8178 169.313 23.6407 170.286 23.2865V20.099C169.667 20.2761 169.047 20.3647 168.427 20.3647C167.365 20.3647 166.922 19.8334 166.922 18.948V15.1407H170.109V11.6876H166.922V7.52612L162.672 8.50008Z" fill="#102440"/>
<path d="M171.438 17.7084C171.438 21.8698 174.536 23.9063 177.99 23.9063C181.531 23.9063 184.542 21.8698 184.542 17.7084C184.542 13.5469 181.443 11.5105 177.99 11.5105C174.536 11.4219 171.438 13.5469 171.438 17.7084ZM180.38 17.7084C180.38 19.0365 179.76 20.2761 178.078 20.2761C176.396 20.2761 175.776 19.0365 175.776 17.7084C175.776 16.3803 176.396 15.1407 178.078 15.1407C179.76 15.1407 180.38 16.3803 180.38 17.7084Z" fill="#102440"/>
<path d="M186.578 5.6665V23.4634H190.74V5.6665H186.578Z" fill="#102440"/>
<path d="M205.792 23.5522L201.719 17.6199L205.526 11.8647H200.922L198.354 15.9376H197.469V6.46362H193.219V23.5522H197.38V19.1251H198.266L201.188 23.5522H205.792Z" fill="#102440"/>
<path d="M211.104 23.5521V11.776H206.943V23.4635H211.104V23.5521ZM211.37 7.88021C211.37 6.28646 210.308 5.57812 208.979 5.57812C207.74 5.57812 206.589 6.28646 206.589 7.88021C206.589 9.47396 207.74 10.1823 208.979 10.1823C210.308 10.1823 211.37 9.47396 211.37 7.88021Z" fill="#102440"/>
<path d="M218.188 21.5156C218.188 19.8333 217.037 19.125 215.709 19.125C214.381 19.125 213.229 19.8333 213.229 21.5156C213.229 23.1979 214.381 23.9062 215.709 23.9062C217.037 23.9062 218.188 23.1979 218.188 21.5156Z" fill="#F46513"/>
<path d="M220.312 6.46362V23.5522H223.943V21.9584C224.563 22.9324 225.802 23.9063 227.927 23.9063C231.823 23.9063 233.594 20.7188 233.594 17.7084C233.594 14.698 231.823 11.5105 227.927 11.5105C226.333 11.5105 225.182 12.1303 224.474 12.8386V6.46362H220.312ZM229.344 17.7084C229.344 19.0365 228.547 20.5417 226.865 20.5417C225.714 20.5417 224.828 19.8334 224.474 19.0365V16.3803C224.828 15.5834 225.714 14.8751 226.865 14.8751C228.547 14.8751 229.344 16.2917 229.344 17.7084Z" fill="#102440"/>
<path d="M240.943 18.7709L238.11 11.7761H233.683L239.172 23.8178C238.641 25.0574 237.756 25.6772 236.693 25.6772C236.162 25.6772 235.631 25.5886 235.099 25.5001V28.9532C235.808 29.1303 236.516 29.3074 237.224 29.3074C239.261 29.3074 241.209 28.3334 242.625 24.8803L247.495 11.9532H243.245L240.943 18.7709Z" fill="#102440"/>
</symbol><symbol id="icon-minus" viewBox="0 0 20 2">
<path d="M1.25 1H18.75" stroke="white" stroke-width="2" stroke-linecap="round" stroke-linejoin="round"/>
</symbol><symbol id="icon-orange-location" viewBox="0 0 20 20">
<circle cx="10" cy="10" r="10" fill="#F46513"/>
<g clip-path="url(#clip0_288_1058)">
<path d="M14 9.11133C14 12.2224 10 14.8891 10 14.8891C10 14.8891 6 12.2224 6 9.11133C6 8.05046 6.42143 7.03305 7.17157 6.2829C7.92172 5.53276 8.93913 5.11133 10 5.11133C11.0609 5.11133 12.0783 5.53276 12.8284 6.2829C13.5786 7.03305 14 8.05046 14 9.11133Z" fill="white" stroke="white" stroke-width="0.666667" stroke-linecap="round" stroke-linejoin="round"/>
<path d="M9.99996 10.6667C10.7363 10.6667 11.3333 10.0697 11.3333 9.33333C11.3333 8.59695 10.7363 8 9.99996 8C9.26358 8 8.66663 8.59695 8.66663 9.33333C8.66663 10.0697 9.26358 10.6667 9.99996 10.6667Z" fill="#F46513"/>
</g>

</symbol><symbol id="icon-orange-tel" viewBox="0 0 20 20">
<circle cx="10" cy="10" r="10" fill="#F46513"/>
<path d="M14.4444 12.1868V13.5202C14.4449 13.6439 14.4195 13.7664 14.3699 13.8799C14.3204 13.9933 14.2476 14.0951 14.1564 14.1788C14.0652 14.2624 13.9575 14.3261 13.8403 14.3658C13.723 14.4055 13.5988 14.4202 13.4755 14.409C12.1079 14.2604 10.7942 13.7931 9.63994 13.0446C8.56609 12.3622 7.65565 11.4518 6.97328 10.3779C6.22216 9.21846 5.75472 7.89837 5.60883 6.5246C5.59773 6.40169 5.61233 6.27782 5.65172 6.16087C5.69111 6.04392 5.75442 5.93646 5.83762 5.84532C5.92081 5.75418 6.02208 5.68136 6.13496 5.63149C6.24784 5.58163 6.36987 5.55582 6.49328 5.55571H7.82661C8.0423 5.55358 8.25141 5.62996 8.41495 5.77061C8.57849 5.91126 8.68531 6.10657 8.7155 6.32015C8.77178 6.74685 8.87614 7.16581 9.02661 7.56904C9.08641 7.72812 9.09935 7.901 9.0639 8.06721C9.02845 8.23342 8.9461 8.38598 8.82661 8.50682L8.26217 9.07126C8.89486 10.1839 9.81615 11.1052 10.9288 11.7379L11.4933 11.1735C11.6141 11.054 11.7667 10.9716 11.9329 10.9362C12.0991 10.9007 12.272 10.9137 12.4311 10.9735C12.8343 11.124 13.2532 11.2283 13.6799 11.2846C13.8958 11.3151 14.093 11.4238 14.234 11.5901C14.3749 11.7565 14.4498 11.9689 14.4444 12.1868Z" fill="white"/>
</symbol><symbol id="icon-orange-time" viewBox="0 0 20 20">
<circle cx="10" cy="10" r="10" fill="#F46513"/>
<path d="M9.99999 14.4446C12.4546 14.4446 14.4444 12.4547 14.4444 10.0001C14.4444 7.54551 12.4546 5.55566 9.99999 5.55566C7.54539 5.55566 5.55554 7.54551 5.55554 10.0001C5.55554 12.4547 7.54539 14.4446 9.99999 14.4446Z" fill="white" stroke="white" stroke-width="0.666667" stroke-linecap="round" stroke-linejoin="round"/>
<path d="M10 7.3335V10.0002L11.7778 10.8891" stroke="#F46513" stroke-width="0.666667" stroke-linecap="round" stroke-linejoin="round"/>
</symbol><symbol id="icon-phone" viewBox="0 0 24 24">
<circle cx="12" cy="12" r="12" fill="#F46513"/>
<path d="M17.3333 14.6239V16.2239C17.3339 16.3724 17.3035 16.5194 17.244 16.6555C17.1845 16.7916 17.0972 16.9138 16.9878 17.0142C16.8783 17.1146 16.7491 17.1911 16.6084 17.2387C16.4677 17.2863 16.3186 17.3039 16.1706 17.2906C14.5295 17.1122 12.953 16.5514 11.568 15.6532C10.2794 14.8344 9.18683 13.7418 8.36798 12.4532C7.46664 11.0619 6.90571 9.47775 6.73065 7.82922C6.71732 7.68174 6.73485 7.53309 6.78211 7.39276C6.82938 7.25242 6.90535 7.12346 7.00519 7.01409C7.10503 6.90472 7.22654 6.81733 7.362 6.7575C7.49746 6.69767 7.6439 6.6667 7.79198 6.66656H9.39198C9.65081 6.66401 9.90174 6.75566 10.098 6.92444C10.2942 7.09322 10.4224 7.32759 10.4586 7.58389C10.5262 8.09592 10.6514 8.59868 10.832 9.08256C10.9037 9.27345 10.9193 9.48091 10.8767 9.68036C10.8342 9.87981 10.7354 10.0629 10.592 10.2079L9.91465 10.8852C10.6739 12.2204 11.7794 13.326 13.1146 14.0852L13.792 13.4079C13.937 13.2645 14.1201 13.1657 14.3195 13.1231C14.519 13.0806 14.7264 13.0961 14.9173 13.1679C15.4012 13.3484 15.9039 13.4737 16.416 13.5412C16.6751 13.5778 16.9117 13.7083 17.0808 13.9079C17.2499 14.1075 17.3398 14.3623 17.3333 14.6239Z" fill="white"/>
</symbol><symbol id="icon-plus" viewBox="0 0 20 20">
<path d="M1.25 10H18.75" stroke="white" stroke-width="2" stroke-linecap="round" stroke-linejoin="round"/>
<path d="M10 1.25V18.75" stroke="white" stroke-width="2" stroke-linecap="round" stroke-linejoin="round"/>
</symbol><symbol id="icon-tel" viewBox="0 0 24 24">
<circle cx="12" cy="12" r="12" fill="#F46513"/>
<path d="M17.3333 14.6239V16.2239C17.3339 16.3724 17.3035 16.5194 17.244 16.6555C17.1845 16.7916 17.0972 16.9138 16.9878 17.0142C16.8783 17.1146 16.7491 17.1911 16.6084 17.2387C16.4677 17.2863 16.3186 17.3039 16.1706 17.2906C14.5295 17.1122 12.953 16.5514 11.568 15.6532C10.2794 14.8344 9.18683 13.7418 8.36798 12.4532C7.46664 11.0619 6.90571 9.47775 6.73065 7.82922C6.71732 7.68174 6.73485 7.53309 6.78211 7.39276C6.82938 7.25242 6.90535 7.12346 7.00519 7.01409C7.10503 6.90472 7.22654 6.81733 7.362 6.7575C7.49746 6.69767 7.6439 6.6667 7.79198 6.66656H9.39198C9.65081 6.66401 9.90174 6.75566 10.098 6.92444C10.2942 7.09322 10.4224 7.32759 10.4586 7.58389C10.5262 8.09592 10.6514 8.59868 10.832 9.08256C10.9037 9.27345 10.9193 9.48091 10.8767 9.68036C10.8342 9.87981 10.7354 10.0629 10.592 10.2079L9.91465 10.8852C10.6739 12.2204 11.7794 13.326 13.1146 14.0852L13.792 13.4079C13.937 13.2645 14.1201 13.1657 14.3195 13.1231C14.519 13.0806 14.7264 13.0961 14.9173 13.1679C15.4012 13.3484 15.9039 13.4737 16.416 13.5412C16.6751 13.5778 16.9117 13.7083 17.0808 13.9079C17.2499 14.1075 17.3398 14.3623 17.3333 14.6239Z" fill="white"/>
</symbol><symbol id="icon-telegram" viewBox="0 0 30 30">
<g clip-path="url(#clip0_273_1533)">
<path d="M11.7715 18.9763L11.2752 25.9563C11.9852 25.9563 12.2927 25.6513 12.6615 25.285L15.9902 22.1038L22.8877 27.155C24.1527 27.86 25.044 27.4888 25.3852 25.9913L29.9127 4.77627L29.914 4.77502C30.3152 2.90502 29.2377 2.17377 28.0052 2.63252L1.39272 12.8213C-0.423528 13.5263 -0.396028 14.5388 1.08397 14.9975L7.88772 17.1138L23.6915 7.22502C24.4352 6.73252 25.1115 7.00502 24.5552 7.49752L11.7715 18.9763Z" fill="white"/>
</g>

</symbol></svg>